<?xml version="1.0" encoding="UTF-8"?>
<!-- Generate more at customizr.net -->
<svg id="linkedin" class="custom-icon" version="1.1" viewBox="0 0 100 100" xmlns="http://www.w3.org/2000/svg" xmlns:cc="http://creativecommons.org/ns#" xmlns:dc="http://purl.org/dc/elements/1.1/" xmlns:rdf="http://www.w3.org/1999/02/22-rdf-syntax-ns#">
 <metadata>
  <rdf:RDF>
   <cc:Work rdf:about="">
    <dc:format>image/svg+xml</dc:format>
    <dc:type rdf:resource="http://purl.org/dc/dcmitype/StillImage"/>
    <dc:title/>
   </cc:Work>
  </rdf:RDF>
 </metadata>
 <circle class="outer-shape" cx="50" cy="50" r="48" fill="#0399ff"/>
 <path class="inner-shape" transform="translate(25 25) scale(.5)" d="M82.539,1H17.461C8.408,1,1,8.408,1,17.461v65.078C1,91.592,8.408,99,17.461,99h65.078C91.592,99,99,91.592,99,82.539 V17.461C99,8.408,91.592,1,82.539,1z M37.75,80.625H25.5V37.75h12.25V80.625z M31.625,31.625c-3.383,0-6.125-2.742-6.125-6.125 s2.742-6.125,6.125-6.125s6.125,2.742,6.125,6.125S35.008,31.625,31.625,31.625z M80.625,80.625h-12.25v-24.5 c0-3.383-2.742-6.125-6.125-6.125s-6.125,2.742-6.125,6.125v24.5h-12.25V37.75h12.25v7.606c2.526-3.47,6.389-7.606,10.719-7.606 c7.612,0,13.782,6.856,13.782,15.312L80.625,80.625L80.625,80.625z" fill="#f7f7f7"/>
 <path d="m25.521 31.944c0 34.722 0.17361 34.722 0.17361 34.722" fill="none" stroke="#000" stroke-width="1px"/>
 <path d="m67.535 74.132-34.375 0.52083" fill="none" stroke="#000" stroke-width="1px"/>
 <g>
  <ellipse cx="25.738" cy="66.645" rx=".36892" ry=".52083"/>
  <ellipse cx="25.727" cy="66.949" rx=".032552" ry=".28212"/>
  <ellipse cx="25.694" cy="67.155" rx=".15191" ry=".24957"/>
  <ellipse cx="25.662" cy="66.699" rx=".37977" ry=".16276"/>
  <ellipse cx="25.868" cy="67.556" rx=".17361" ry=".88976"/>
  <ellipse cx="25.879" cy="68.164" rx=".11936" ry=".26042"/>
  <ellipse cx="26.291" cy="68.913" rx=".27127" ry=".68359"/>
  <ellipse cx="26.628" cy="69.759" rx=".19531" ry=".57509"/>
  <ellipse cx="26.562" cy="69.683" rx=".15191" ry=".56424"/>
  <ellipse cx="26.519" cy="69.672" rx=".19531" ry=".44488"/>
  <ellipse cx="26.042" cy="67.101" rx=".10851" ry=".26042"/>
  <ellipse cx="26.107" cy="67.958" rx=".10851" ry=".59679"/>
  <ellipse cx="26.031" cy="68.403" rx=".16276" ry=".62934"/>
  <ellipse cx="25.868" cy="67.524" rx=".13021" ry=".46658"/>
  <ellipse cx="31.51" cy="74.316" rx="1.6493" ry=".33637"/>
  <ellipse cx="29.655" cy="73.394" rx=".96571" ry=".41233"/>
  <ellipse cx="28.961" cy="72.862" rx=".92231" ry=".44488"/>
  <ellipse cx="28.331" cy="71.788" rx=".98741" ry=".54253"/>
  <ellipse cx="28.798" cy="72.461" rx=".91146" ry=".56424"/>
  <ellipse cx="27.582" cy="71.137" rx=".67274" ry=".75955"/>
  <ellipse cx="27.148" cy="70.714" rx=".49913" ry=".7921"/>
  <ellipse cx="26.78" cy="70.161" rx=".47743" ry=".82465"/>
  <ellipse cx="26.411" cy="69.423" rx=".45573" ry=".80295"/>
  <ellipse cx="26.139" cy="68.75" rx=".40148" ry=".75955"/>
  <ellipse cx="25.846" cy="67.502" rx=".41233" ry=".37977"/>
  <ellipse cx="25.694" cy="66.905" rx="2.4256e-7" ry=".23872"/>
  <ellipse cx="25.955" cy="68.186" rx=".32552" ry=".93316"/>
  <ellipse cx="25.814" cy="67.871" rx=".37977" ry="1.0091"/>
  <ellipse cx="25.586" cy="67.48" rx=".28212" ry=".87891"/>
  <ellipse cx="30.349" cy="73.904" rx=".727" ry=".64019"/>
  <ellipse cx="31.12" cy="74.436" rx=".41233" ry=".21701"/>
  <ellipse cx="31.196" cy="74.316" rx=".40148" ry=".44488"/>
  <ellipse cx="30.914" cy="74.078" rx=".40148" ry=".50998"/>
  <ellipse cx="32.237" cy="74.631" rx="1.1176" ry=".47743"/>
  <ellipse cx="33.344" cy="74.859" rx=".7704" ry=".18446"/>
  <ellipse cx="32.682" cy="74.826" rx=".32552" ry=".21701"/>
  <ellipse cx="30.36" cy="74.056" rx=".10851" ry=".22786"/>
  <ellipse cx="29.742" cy="73.633" rx=".31467" ry=".21701"/>
  <ellipse cx="29.829" cy="73.687" rx=".66189" ry=".53168"/>
  <ellipse cx="28.125" cy="71.951" rx=".71615" ry=".44488"/>
 </g>
 <g fill="#f7f7f7">
  <path d="m33.283 68.113c0.01208 0.16292 0.04027 0.32415 0.06531 0.48545 0.03183 0.16014 0.06836 0.32005 0.12007 0.47513 0.02198 0.06592 0.05722 0.15421 0.08254 0.21927 0.05545 0.13498 0.12289 0.26439 0.19983 0.38821 0.02865 0.04354 0.0487 0.08376 0.08238 0.12348 0.03093 0.03218 0.06796 0.05714 0.10621 0.07997 0.0682 0.03275 0.13958 0.05849 0.20969 0.0869 0.14868 0.06676 0.30587 0.10736 0.46608 0.13422 0.07195 0.01004 0.14393 0.01969 0.2167 0.01945 0.02806-9.3e-5 0.05835 0.0021 0.08244-0.01338l-0.25495 0.1975c-0.09929 0.0055-0.19822-0.01314-0.29603-0.02712-0.16292-0.02905-0.32239-0.07173-0.47562-0.1351-0.07352-0.02696-0.14829-0.05205-0.21772-0.08868-0.04022-0.02571-0.08023-0.05185-0.11213-0.08788-0.03435-0.03939-0.05444-0.08621-0.08181-0.13048-0.07146-0.12916-0.13491-0.26264-0.18991-0.39968-0.02231-0.0588-0.06257-0.16309-0.08204-0.22205-0.05157-0.15614-0.08812-0.31682-0.12586-0.47667-0.02638-0.15994-0.05294-0.31979-0.07951-0.47968l0.28433-0.14886z"/>
  <path d="m32.131 68.201c-0.0036 0.102-0.0031 0.20411-0.0025 0.30616-0.0041 0.11745 0.0029 0.23356 0.02535 0.34886 0.04582 0.19853 0.13835 0.38146 0.22613 0.56394 0.0995 0.18992 0.21247 0.37224 0.33363 0.54897 0.06315 0.08473 0.11969 0.17449 0.18692 0.25612 0.01649 0.02252 0.03634 0.04207 0.05462 0.06308l-0.27485 0.16543c-0.01794-0.02154-0.03694-0.0422-0.05316-0.06512-0.06523-0.08396-0.11861-0.17667-0.18053-0.26304-0.11732-0.18084-0.22631-0.3668-0.32856-0.55659-0.09118-0.18331-0.18647-0.36658-0.23992-0.56531-0.02431-0.11645-0.03524-0.23402-0.0307-0.35312 6.05e-4 -0.10121 0.0012-0.2025-0.0025-0.30366l0.28598-0.14572z"/>
  <path d="m28.205 66.284c0.0082 0.06604 0.02394 0.13066 0.03835 0.19551l-0.28 0.15015c-0.01333-0.06537-0.02804-0.13048-0.0431-0.19545l0.28475-0.15021z"/>
  <path d="m28.295 66.619c0.04649 0.04289 0.09387 0.08384 0.14782 0.11728l-0.26901 0.17269c-0.0552-0.03748-0.10478-0.0814-0.15545-0.12463l0.27664-0.16534z"/>
  <path d="m29.12 66.597c0.04209 0.05054 0.10626 0.07252 0.16544 0.09654 0.01597 5e-3 0.03194 0.01 0.04791 0.01499l-0.26086 0.17745c-0.01667-0.0054-0.03335-0.01089-0.05002-0.01634-0.06551-0.0261-0.13198-0.05234-0.17911-0.1073l0.27664-0.16534z"/>
  <path d="m30.292 66.944c0.01276 0.02346 0.03037 0.04272 0.049 0.06149l-0.27327 0.16677c-0.01875-0.01995-0.03672-0.04037-0.05236-0.06292l0.27664-0.16534z"/>
  <path d="m30.686 67.795c0.03282 0.10354 0.07879 0.20207 0.12735 0.29898l-0.27278 0.15493c-0.04664-0.09865-0.09095-0.19824-0.13283-0.29901l0.27826-0.1549z"/>
  <path d="m28.559 67.708 0.88976 0.69444" stroke="#000" stroke-width="1px"/>
  <ellipse cx="30.056" cy="71.495" rx="1.1068" ry=".64019"/>
  <ellipse cx="31.923" cy="70.421" rx="3.9931" ry=".65104"/>
  <ellipse cx="29.405" cy="71.213" rx=".88976" ry=".53168"/>
  <ellipse cx="29.112" cy="71.191" rx=".8138" ry=".40148"/>
  <ellipse cx="29.601" cy="71.549" rx=".84635" ry=".26042"/>
  <ellipse cx="30.089" cy="71.973" rx=".94401" ry=".20616"/>
  <ellipse cx="28.559" cy="71.354" rx=".13021" ry=".15191"/>
  <ellipse cx="28.722" cy="71.495" rx=".18446" ry=".16276"/>
  <circle cx="28.602" cy="71.419" r=".043403"/>
  <ellipse cx="29.557" cy="72.233" rx=".15191" ry=".18446"/>
  <ellipse cx="29.156" cy="71.723" rx=".14106" ry=".26042"/>
  <ellipse cx="29.427" cy="71.973" rx=".19531" ry=".31467"/>
  <ellipse cx="29.557" cy="72.07" rx=".21701" ry=".065104"/>
  <ellipse cx="29.763" cy="72.19" rx=".010851" ry=".11936"/>
  <circle cx="29.058" cy="71.636" r=".19531"/>
  <ellipse cx="29.731" cy="72.266" rx=".15191" ry=".34722"/>
  <ellipse cx="28.212" cy="70.399" rx=".32552" ry=".39062"/>
  <ellipse cx="27.886" cy="70.291" rx=".19531" ry=".28212"/>
  <ellipse cx="28.364" cy="70.714" rx=".39062" ry=".35807"/>
  <ellipse cx="29.445" cy="67.906" rx="1.0019" ry="1.1698"/>
  <ellipse cx="28.32" cy="68.045" rx=".49913" ry=".7704"/>
 </g>
 <g fill="none" stroke="#000" stroke-width="1px">
  <path d="m27.214 71.072c-0.01109 0.13099 0.08243-0.0044 0.10851 0.0217 0.0051 0.0051-0.0051 0.01659 0 0.0217 0.0051 0.0051 0.01447 0 0.0217 0 0.01447 0 0.03046-0.0065 0.0434 0 0.0183 0.0092 0.02586 0.03288 0.0434 0.0434 0.11592 0.06955 0.01355-0.01719 0.13021 0.0217 0.02474 0.0082 0.04089 0.03372 0.0651 0.0434 0.01343 0.0054 0.02937-0.0035 0.0434 0 0.14618 0.03654 3.35e-4 3.35e-4 0.0434 0.0434 0.0051 0.0051 0.01523-0.0032 0.0217 0 0.0092 0.0046 0.01447 0.01447 0.0217 0.0217 0.05089 0.05089-0.0051-0.01534 0.0217 0.06511 0.0083 0.02493 0.05181 0.03011 0.0651 0.0434 0.0014 0.0014 0.04071 0.08276 0.0434 0.08681-0.0022 0.04299 0.03196 0.01026 0.0434 0.0217 0.02894 0.02894-0.03617 0.0217 0.0217 0.0217"/>
  <path d="m33.529 74.631c0.01109-0.13099-0.08243 0.0044-0.10851-0.0217-0.0051-0.0051 0.0051-0.01659 0-0.0217-0.0044-0.0044-0.0565 0.0043-0.0651 0-0.0091-0.0046-0.01255-0.01713-0.0217-0.0217-0.0066-0.0033-0.05533 0-0.0651 0h-0.15191c-0.01447 0-0.02937 0.0035-0.0434 0-0.01569-0.0039-0.02806-0.01659-0.0434-0.0217-0.01406-0.0047-0.09074 0-0.10851 0h-0.19531-0.45573-0.23872c-0.01509 0-0.10066 0.0039-0.10851 0-0.0183-0.0091-0.0251-0.03425-0.0434-0.0434-0.0065-0.0032-0.01659 0.0051-0.0217 0-0.0051-0.0051 0.0051-0.01659 0-0.0217-0.01023-0.01023-0.03317 0.01023-0.0434 0-0.0051-0.0051 0.0051-0.01659 0-0.0217-0.01023-0.01023-0.03317 0.01023-0.0434 0-0.01144-0.01144-0.0082-0.03443-0.0217-0.0434-0.01564-0.01042-0.08567 0.0076-0.10851 0-0.15719-0.0524 0.03421 0.0063-0.0651-0.0434-0.0065-0.0032-0.01659 0.0051-0.0217 0-0.0051-0.0051 0.0051-0.01659 0-0.0217-0.01085-0.01085-0.05425 0.01085-0.0651 0-0.0051-0.0051 0.0051-0.01659 0-0.0217-0.0052-0.0052-0.08158 0.0052-0.0868 0-0.01023-0.01023 8e-3 -0.03137 0-0.0434-0.02712-0.04067-0.05617-0.01149-0.08681-0.0217-0.01534-0.0051-0.02806-0.01659-0.0434-0.0217-0.0069-0.0023-0.01659 0.0051-0.0217 0-0.0051-0.0051 0.0051-0.01659 0-0.0217-0.0051-0.0051-0.01523 0.0032-0.0217 0-0.0494-0.0494 0.0045-0.0057-0.0434-0.0217-0.04528-0.0151-0.06322-0.05001-0.10851-0.06511-0.0069-0.0023-0.01484 0.0023-0.0217 0-0.04557-0.01519-0.08464-0.04991-0.13021-0.0651-0.0069-0.0023-0.01659 0.0051-0.0217 0-0.0051-0.0051 0.0065-0.01847 0-0.0217-0.01294-0.0065-0.02968 0.0046-0.0434 0-0.0097-0.0032-0.01255-0.01713-0.0217-0.0217-0.0065-0.0032-0.01659 0.0051-0.0217 0-0.0051-0.0051 0.0051-0.01659 0-0.0217-0.01023-0.01023-0.03317 0.01023-0.0434 0-0.0051-0.0051 0.0051-0.01659 0-0.0217-0.01085-0.01085-0.05425 0.01085-0.0651 0-0.0051-0.0051 0.0051-0.01659 0-0.0217-0.0051-0.0051-0.01659 0.0051-0.0217 0 0-0.05787 0.0072 0.0072-0.0217-0.0217-0.01144-0.01144-0.01026-0.03196-0.0217-0.0434-0.01023-0.01023-0.03317 0.01023-0.0434 0-0.0051-0.0051 0.0051-0.01659 0-0.0217-0.01023-0.01023-0.03046 0.0065-0.0434 0-0.0092-0.0046-0.01447-0.01447-0.0217-0.0217-0.01447 0-0.02968 0.0046-0.0434 0-0.0097-0.0032-0.012-0.01847-0.0217-0.0217-0.01373-0.0046-0.03046 0.0065-0.0434 0-0.0065-0.0032 0.0051-0.01659 0-0.0217-0.01085-0.01085-0.05425 0.01085-0.0651 0-0.0051-0.0051 4e-3 -0.01568 0-0.0217 0.05355-0.0657-0.05903-0.03733-0.0651-0.0434-0.01144-0.01144-0.01026-0.03196-0.0217-0.0434-0.0051-0.0051-0.01659 0.0051-0.0217 0-0.0051-0.0051 0-0.01447 0-0.0217-0.01447-0.01447-0.02638-0.03205-0.0434-0.0434-6e-3 -4e-3 -0.01523 0.0032-0.0217 0-0.0091-0.0046-0.012-0.01847-0.0217-0.0217-0.01373-0.0046-0.03046 0.0065-0.0434 0-0.0065-0.0032 0.0051-0.01659 0-0.0217-0.0051-0.0051-0.01659 0.0051-0.0217 0-0.0051-0.0051 0.0051-0.01659 0-0.0217-0.0051-0.0051-0.01523 0.0032-0.0217 0-0.0092-0.0046-0.01255-0.01713-0.0217-0.0217-0.0065-0.0032-0.01659 0.0051-0.0217 0-0.0051-0.0051 0.0051-0.01659 0-0.0217-0.01144-0.01144-0.02994-0.01273-0.0434-0.0217-0.0085-0.0057-0.01319-0.01603-0.0217-0.0217-0.02692-0.01794-0.05989-0.02546-0.08681-0.0434-0.03971-0.02647-0.0022-0.02767-0.0651-0.0434-0.01403-0.0035-0.02968 0.0046-0.0434 0-0.0097-0.0032-0.01255-0.01713-0.0217-0.0217-0.0065-0.0032-0.01523 0.0032-0.0217 0-0.0092-0.0046-0.01255-0.01713-0.0217-0.0217-0.0065-0.0032-0.01659 0.0051-0.0217 0-0.0051-0.0051 0.0051-0.01659 0-0.0217-2.1e-5 -2.1e-5 -0.06501 3.3e-5 -0.0651 0-0.0097-0.0032-0.01255-0.01713-0.0217-0.0217-0.0065-0.0032-0.01523 0.0032-0.0217 0-0.0092-0.0046-0.01255-0.01713-0.0217-0.0217-0.01294-0.0065-0.03046 0.0065-0.0434 0-0.09032-0.04516 0.0232 0.0015-0.0217-0.0434-0.01023-0.01023-0.03317 0.01023-0.0434 0-0.0051-0.0051 0.0051-0.01659 0-0.0217-0.0051-0.0051-0.01659 0.0051-0.0217 0-0.0051-0.0051 0.0051-0.01659 0-0.0217-0.0051-0.0051-0.01659 0.0051-0.0217 0-0.01023-0.01023 0.01023-0.03317 0-0.0434-0.0051-0.0051-0.01523 0.0032-0.0217 0-0.0092-0.0046-0.01255-0.01713-0.0217-0.0217-0.0065-0.0032-0.01847 0.0065-0.0217 0 0-0.12298 0.01447-0.0072-0.0217-0.0434-0.0051-0.0051 0.0051-0.01659 0-0.0217-0.01023-0.01023-0.03317 0.01023-0.0434 0-0.0051-0.0051 0.0051-0.01659 0-0.0217-0.0051-0.0051-0.01659 0.0051-0.0217 0-0.0051-0.0051 0.0051-0.01659 0-0.0217-0.01144-0.01144-0.02806-0.01659-0.0434-0.0217-0.0069-0.0023-0.01659 0.0051-0.0217 0-0.01144-0.01144-0.01026-0.03196-0.0217-0.0434-0.0051-0.0051-0.01523 0.0032-0.0217 0-0.0091-0.0046-0.01255-0.01713-0.0217-0.0217-0.0065-0.0032-0.01659 0.0051-0.0217 0-0.0051-0.0051 0.0051-0.01659 0-0.0217-0.0051-0.0051-0.01659 0.0051-0.0217 0-0.0051-0.0051 0.0051-0.01659 0-0.0217-0.0051-0.0051-0.01659 0.0051-0.0217 0-0.0051-0.0051 0.0051-0.01659 0-0.0217-0.01023-0.01023-0.03046 0.0065-0.0434 0-0.0091-0.0046-0.01255-0.01713-0.0217-0.0217-0.0065-0.0032-0.01659 0.0051-0.0217 0-0.0051-0.0051 0.0051-0.01659 0-0.0217-0.0449-0.0449 0.0018 0.06862-0.0434-0.0217-0.0032-0.0065 0.0032-0.01523 0-0.0217-0.0092-0.0183-0.03205-0.02638-0.0434-0.0434-9e-3 -0.01346-0.01026-0.03197-0.0217-0.0434-0.0051-0.0051-0.01659 0.0051-0.0217 0-0.01144-0.01144-0.01026-0.03196-0.0217-0.0434-0.0051-0.0051-0.01659 0.0051-0.0217 0-0.0051-0.0051 0.0032-0.01523 0-0.0217-0.0046-0.0092-0.01713-0.01255-0.0217-0.0217-0.0032-0.0065 0.0032-0.01523 0-0.0217-0.01159-0.02319-0.03181-0.02021-0.0434-0.0434-0.0032-0.0065 0.0051-0.01659 0-0.0217-0.0449-0.0449 0.0018 0.06861-0.0434-0.0217-0.0032-0.0065 0.0032-0.01523 0-0.0217-0.0046-0.0092-0.01713-0.01255-0.0217-0.0217-0.0032-0.0065 0.0051-0.01659 0-0.0217-0.0051-0.0051-0.01659 0.0051-0.0217 0-0.0051-0.0051 0.0051-0.01659 0-0.0217-0.0051-0.0051-0.01659 0.0051-0.0217 0-0.0051-0.0051 0.0051-0.01659 0-0.0217-0.0051-0.0051-0.01659 0.0051-0.0217 0-0.0051-0.0051 0.0051-0.01659 0-0.0217-0.0051-0.0051-0.01659 0.0051-0.0217 0-0.0051-0.0051 0.0051-0.01659 0-0.0217-0.0051-0.0051-0.01847 0.0065-0.0217 0-0.0065-0.01294 0.0065-0.03046 0-0.0434-0.0032-0.0065-0.01523 0.0032-0.0217 0-0.0092-0.0046-0.01255-0.01713-0.0217-0.0217-0.0065-0.0032-0.01659 0.0051-0.0217 0-0.0051-0.0051 0.0065-0.01847 0-0.0217-0.01294-0.0065-0.03046 0.0065-0.0434 0s0.01023-0.03317 0-0.0434c-0.0051-0.0051-0.01659 0.0051-0.0217 0-0.0051-0.0051 0.0023-0.01484 0-0.0217-0.0051-0.01534-0.01273-0.02994-0.0217-0.0434-0.0057-0.0085-0.01255-0.01713-0.0217-0.0217-0.0065-0.0032-0.01847 0.0065-0.0217 0-0.0065-0.01294 0.0065-0.03046 0-0.0434-0.0032-0.0065-0.01847 0.0065-0.0217 0-0.0065-0.01294 8e-3 -0.03137 0-0.0434-9e-3 -0.01346-0.03196-0.01026-0.0434-0.0217-0.0051-0.0051 0.0051-0.01659 0-0.0217-0.0449-0.0449 0.0018 0.06862-0.0434-0.0217-0.01497-0.02993 0.02628-0.01941-0.0217-0.0434-0.0065-0.0032-0.01659 0.0051-0.0217 0-0.0051-0.0051 0.0032-0.01523 0-0.0217-0.0046-0.0091-0.01713-0.01255-0.0217-0.0217-0.0032-0.0065 0.0065-0.01847 0-0.0217-0.01294-0.0065-0.03317 0.01023-0.0434 0s0.0046-0.02968 0-0.0434c-0.0032-0.0097-0.01713-0.01255-0.0217-0.0217-0.0032-0.0065 0.0051-0.01659 0-0.0217-0.01144-0.01144-0.03196-0.01026-0.0434-0.0217-0.0051-0.0051 0.0051-0.01659 0-0.0217-0.0051-0.0051-0.01659 0.0051-0.0217 0-0.01144-0.01144-0.01026-0.03197-0.0217-0.0434-0.01023-0.01023-0.03317 0.01023-0.0434 0-0.0051-0.0051 0.0051-0.01659 0-0.0217-0.01023-0.01023-0.03317 0.01023-0.0434 0-0.0051-0.0051 0.0032-0.01523 0-0.0217-0.02319-0.04638-0.02021 3e-3 -0.0434-0.0434-0.0032-0.0065 0.0051-0.01659 0-0.0217-0.01023-0.01023-0.03317 0.01023-0.0434 0-0.0051-0.0051 0.0032-0.01523 0-0.0217-0.0046-0.0092-0.01713-0.01255-0.0217-0.0217-0.0032-0.0065 0.0051-0.01659 0-0.0217-0.0051-0.0051-0.01659 0.0051-0.0217 0-0.0051-0.0051 0.0051-0.01659 0-0.0217-0.05787 0 0.0072 0.0072-0.0217-0.0217-0.0051-0.0051-0.01659 0.0051-0.0217 0-0.0051-0.0051 0.0051-0.01659 0-0.0217-0.0051-0.0051-0.01847 0.0065-0.0217 0-0.0065-0.01294 0-0.02894 0-0.0434 0-0.0072 0.0051-0.01659 0-0.0217-0.0051-0.0051-0.01659 0.0051-0.0217 0-0.0051-0.0051 0.0051-0.01659 0-0.0217-0.0051-0.0051-0.01659 0.0051-0.0217 0-0.0051-0.0051 0.0051-0.01659 0-0.0217-0.01023-0.01023-0.03317 0.01023-0.0434 0s0.01023-0.03317 0-0.0434c-0.0051-0.0051-0.01659 0.0051-0.0217 0-0.0051-0.0051 0.0032-0.01523 0-0.0217-0.0046-0.0092-0.01713-0.01255-0.0217-0.0217-0.0032-0.0065 0.0051-0.01659 0-0.0217-0.0051-0.0051-0.01659 0.0051-0.0217 0-0.0051-0.0051 0.0032-0.01523 0-0.0217-0.0092-0.0183-0.03425-0.0251-0.0434-0.0434-0.0032-0.0065 0.0051-0.01659 0-0.0217-0.0051-0.0051-0.01659 0.0051-0.0217 0-0.0051-0.0051 0.0051-0.01659 0-0.0217-0.0051-0.0051-0.01659 0.0051-0.0217 0-0.0051-0.0051 0.0051-0.01659 0-0.0217-0.0051-0.0051-0.01659 0.0051-0.0217 0-0.08469-0.08469 5e-3 -0.01165-0.0217-0.0651-0.04516-0.09032 0.0015 0.0232-0.0434-0.0217-0.01023-0.01023 0.01023-0.03317 0-0.0434s-0.03317 0.01023-0.0434 0 0.01023-0.03317 0-0.0434c-0.0051-0.0051-0.01659 0.0051-0.0217 0-0.0051-0.0051 0.0051-0.01659 0-0.0217-0.0051-0.0051-0.01659 0.0051-0.0217 0-0.0051-0.0051 0.0032-0.01523 0-0.0217-0.04516-0.09032 0.0015 0.0232-0.0434-0.0217-0.0051-0.0051 0.0051-0.01659 0-0.0217-0.0051-0.0051-0.01659 0.0051-0.0217 0-0.0051-0.0051 0-0.01447 0-0.0217-0.0072 0-0.01568 4e-3 -0.0217 0-0.10068 0.01857-0.02496-0.04666-0.0434-0.0651-0.0051-0.0051-0.01659 0.0051-0.0217 0-0.01023-0.01023 0.01023-0.03317 0-0.0434s-0.03317 0.01023-0.0434 0c-0.0051-0.0051 0.0032-0.01523 0-0.0217-0.0046-0.0092-0.01713-0.01255-0.0217-0.0217-0.0032-0.0065 0.0051-0.01659 0-0.0217-0.0051-0.0051-0.01659 0.0051-0.0217 0-0.01023-0.01023 0.01023-0.03317 0-0.0434-0.0449-0.0449 0.0018 0.06861-0.0434-0.0217-0.0043-0.0086 0.0044-0.06067 0-0.0651-0.0051-0.0051-0.01659 0.0051-0.0217 0-0.0051-0.0051 0.0051-0.01659 0-0.0217-0.0051-0.0051-0.01659 0.0051-0.0217 0-0.01023-0.01023 0.0065-0.03046 0-0.0434-0.0046-0.0092-0.01713-0.01255-0.0217-0.0217-0.0032-0.0065 0.0051-0.01659 0-0.0217-0.0051-0.0051-0.01847 0.0065-0.0217 0-0.0065-0.01294 0.0046-0.02968 0-0.0434-0.0032-0.0097-0.01713-0.01255-0.0217-0.0217-0.0032-0.0065 0.0032-0.01523 0-0.0217-0.0046-0.0091-0.01713-0.01255-0.0217-0.0217-0.0065-0.01294 0.01023-0.03317 0-0.0434-0.0051-0.0051-0.01659 0.0051-0.0217 0-0.0051-0.0051 0.0032-0.01523 0-0.0217-0.0046-0.0091-0.01713-0.01255-0.0217-0.0217-0.0065-0.01294 0.01023-0.03317 0-0.0434-0.0051-0.0051-0.01659 0.0051-0.0217 0-0.01085-0.01085 0.01085-0.05425 0-0.06511-0.0051-0.0051-0.01659 0.0051-0.0217 0-0.0051-0.0051 0.0032-0.01523 0-0.0217-0.0046-0.0091-0.01713-0.01255-0.0217-0.0217-0.0043-0.0086 0.0044-0.06067 0-0.0651-0.0051-0.0051-0.01447 0-0.0217 0 0-0.0072 0.0051-0.01659 0-0.0217-0.0051-0.0051-0.01659 0.0051-0.0217 0-0.01085-0.01085 0.01085-0.05425 0-0.0651-0.0051-0.0051-0.01659 0.0051-0.0217 0-0.01023-0.01023 0.0065-0.03046 0-0.0434-0.0046-0.0092-0.01713-0.01255-0.0217-0.0217-0.0032-0.0065 0.0051-0.01659 0-0.0217-0.0051-0.0051-0.01659 0.0051-0.0217 0-0.0051-0.0051 0.0051-0.01659 0-0.0217-0.0051-0.0051-0.01659 0.0051-0.0217 0-0.01023-0.01023 0.01023-0.03317 0-0.0434-0.0051-0.0051-0.01659 0.0051-0.0217 0-0.0051-0.0051 0.0051-0.01659 0-0.0217-0.0051-0.0051-0.01847 0.0065-0.0217 0-0.0065-0.01294 0-0.02894 0-0.0434 0-0.0072 0.0051-0.01659 0-0.0217-0.0449-0.0449 0.0018 0.06861-0.0434-0.0217-0.0065-0.01294 0.0065-0.03046 0-0.0434-0.0046-0.0092-0.01713-0.01255-0.0217-0.0217-0.0032-0.0065 0.0032-0.01523 0-0.0217-0.0046-0.0091-0.01713-0.01255-0.0217-0.0217-0.0032-0.0065 0.0051-0.01659 0-0.0217-0.0051-0.0051-0.01659 0.0051-0.0217 0-0.01085-0.01085 0.01085-0.05425 0-0.0651-0.0051-0.0051-0.01659 0.0051-0.0217 0-0.01085-0.01085 0.01085-0.05425 0-0.0651-0.0051-0.0051-0.01659 0.0051-0.0217 0-0.01023-0.01023 0.01023-0.03317 0-0.0434-0.0051-0.0051-0.01659 0.0051-0.0217 0-0.01023-0.01023 0.01023-0.03317 0-0.0434-0.0051-0.0051-0.01659 0.0051-0.0217 0-0.0051-0.0051 0.0051-0.01659 0-0.0217-0.0051-0.0051-0.01659 0.0051-0.0217 0-0.01085-0.01085 0.01085-0.05425 0-0.0651-0.0051-0.0051-0.01659 0.0051-0.0217 0-0.0051-0.0051 0.0032-0.01523 0-0.0217-0.0046-0.0092-0.01713-0.01255-0.0217-0.0217-0.0065-0.01294 0.01023-0.03317 0-0.0434-0.0051-0.0051-0.01659 0.0051-0.0217 0-0.0051-0.0051 0.0051-0.01659 0-0.0217-0.0051-0.0051-0.01659 0.0051-0.0217 0-0.01085-0.01085 0.01085-0.05425 0-0.06511-0.0051-0.0051-0.01659 0.0051-0.0217 0-0.0051-0.0051 0.0051-0.01659 0-0.0217-0.02894-0.02893-0.02082 0.04604-0.0434-0.0217-0.0046-0.01373 0-0.02894 0-0.0434 0-0.0072 0.0032-0.01523 0-0.0217-0.0046-0.0092-0.01713-0.01255-0.0217-0.0217-0.0087-0.01736 0.0087-0.04774 0-0.0651-0.0046-0.0092-0.01713-0.01255-0.0217-0.0217-0.0032-0.0065 0.0051-0.01659 0-0.0217-0.0051-0.0051-0.01659 0.0051-0.0217 0-0.0051-0.0051 0.0051-0.01659 0-0.0217-0.0051-0.0051-0.01659 0.0051-0.0217 0-0.0052-0.0052 0.0052-0.08158 0-0.08681-0.02894-0.02894-0.0217 0.03617-0.0217-0.0217v-0.0217c0-0.0072 0.0051-0.01659 0-0.0217-0.0051-0.0051-0.01659 0.0051-0.0217 0-0.0051-0.0051 0.0032-0.01523 0-0.0217-0.0046-0.0092-0.01447-0.01447-0.0217-0.0217-0.02893-0.02894-0.05787-0.05787-0.0868-0.0868-0.0072-0.0072-0.01713-0.01255-0.0217-0.0217-0.0032-0.0065 0.0051-0.01659 0-0.0217-0.0051-0.0051-0.01659 0.0051-0.0217 0-0.0051-0.0051 0.0051-0.01659 0-0.0217-0.0051-0.0051-0.01447 0-0.0217 0 0-0.0072 0.0051-0.01659 0-0.0217-0.0051-0.0051-0.01847 0.0065-0.0217 0-0.0065-0.01294 0-0.02894 0-0.0434 0-0.0072 0.0051-0.01659 0-0.0217-0.0051-0.0051-0.01659 0.0051-0.0217 0-0.0076-0.0076 0.0075-0.09352 0-0.10851-0.02682-0.05363-0.0217 0.0075-0.0217-0.0434v-0.10851-0.0217c0-0.0072 0.0032-0.01523 0-0.0217-0.0046-0.0092-0.01713-0.01255-0.0217-0.0217-0.0032-0.0065 0-0.01447 0-0.0217v-0.0217-0.13021c0-0.0053 6.98e-4 -0.06441 0-0.0651-0.0051-0.0051-0.01659 0.0051-0.0217 0-0.0051-0.0051 0-0.01447 0-0.0217v-0.0217-0.23872-0.0217c0-0.0072 0.0051-0.01659 0-0.0217-0.0051-0.0051-0.01659 0.0051-0.0217 0-0.0067-0.0067 0.0067-0.10179 0-0.10851-0.0051-0.0051-0.01659 0.0051-0.0217 0-0.01023-0.01023 0.0065-0.03046 0-0.0434-0.0046-0.0091-0.01713-0.01255-0.0217-0.0217-0.0043-0.0086 0.0044-0.06067 0-0.0651-0.0051-0.0051-0.01659 0.0051-0.0217 0-0.0059-0.0059 0.0059-0.07503 0-0.08681-0.0046-0.0092-0.01713-0.01255-0.0217-0.0217-0.0043-0.0086 0.0044-0.06067 0-0.0651-0.0051-0.0051-0.01659 0.0051-0.0217 0-0.0051-0.0051 0-0.01447 0-0.0217v-0.0217-0.13021c0-0.01447 0.0031-0.02928 0-0.0434-0.01294-0.05823-0.02893-0.11574-0.0434-0.17361"/>
  <path d="m25.89 66.84 0.41233 2.7127"/>
  <path d="m26.042 68.815c0.02373 0.05445 0.0217 0.09749 0.0217 0.15191 0 0.0072-0.0051 0.01659 0 0.0217 0.02643 0.02643 0.04849 0.01017 0.0651 0.0434 0.0065 0.01294-0.0065 0.03046 0 0.0434 0.0092 0.0183 0.03425 0.0251 0.0434 0.0434 0.0032 0.0065-0.0032 0.01523 0 0.0217 0.0046 0.0092 0.01713 0.01255 0.0217 0.0217 0.0065 0.01294-8e-3 0.03137 0 0.0434 0.01135 0.01702 0.02894 0.02893 0.0434 0.0434 0.0072 0.0072 0.01847 0.012 0.0217 0.0217 0.0046 0.01373-0.0046 0.02968 0 0.0434 0.0032 0.0097 0.01713 0.01255 0.0217 0.0217 0.0032 0.0065-0.0032 0.01523 0 0.0217 0.0046 0.0091 0.01713 0.01255 0.0217 0.0217 0.01023 0.02046 9e-3 0.04607 0.0217 0.0651 4e-3 6e-3 0.01447 0 0.0217 0 0.0072 0.01447 0.01447 0.02894 0.0217 0.0434 0.0072 0.01447 0.01659 0.02806 0.0217 0.0434 0.0023 0.0069-0.0032 0.01523 0 0.0217 0.0046 0.0092 0.01713 0.01255 0.0217 0.0217 0.0065 0.01294-0.01023 0.03317 0 0.0434 0.0051 0.0051 0.01659-0.0051 0.0217 0 0.01023 0.01023-0.01023 0.03317 0 0.0434 0.0051 0.0051 0.01659-0.0051 0.0217 0 0.01023 0.01023-0.0065 0.03046 0 0.0434 0.0046 0.0092 0.01713 0.01255 0.0217 0.0217 0.0057 0.01148-0.0026 0.07623 0 0.08681 0.0262 0.1048 0.01031-0.0011 0.0434 0.0651 0.0087 0.01736-0.0087 0.04774 0 0.0651 0.0065 0.01294 0.03317-0.01023 0.0434 0 0.0051 0.0051-0.0051 0.01659 0 0.0217 0.0051 0.0051 0.01659-0.0051 0.0217 0 0.01085 0.01085-0.01085 0.05425 0 0.0651 0.0051 0.0051 0.01659-0.0051 0.0217 0 0.0051 0.0051-0.0032 0.01523 0 0.0217 0.0046 0.0092 0.01713 0.01255 0.0217 0.0217 0.0032 0.0065-0.0051 0.01659 0 0.0217 0.0051 0.0051 0.01659-0.0051 0.0217 0 0.0055 0.0055-0.0055 0.05957 0 0.0651 0.01023 0.01023 0.03317-0.01023 0.0434 0s-0.0046 0.02968 0 0.0434c0.0065 0.01941 0.03425 0.0251 0.0434 0.0434 0.0032 0.0065-0.0051 0.01659 0 0.0217 0.01144 0.01144 0.03443 0.0082 0.0434 0.0217 8e-3 0.01204-0.0046 0.02968 0 0.0434 0.0032 0.0097 0.01713 0.01255 0.0217 0.0217 0.0032 0.0065-0.0051 0.01659 0 0.0217 0.0051 0.0051 0.01659-0.0051 0.0217 0 0.0051 0.0051 0 0.01447 0 0.0217 0.0072 0 0.01659-0.0051 0.0217 0 0 0.05787-0.0072-0.0072 0.0217 0.0217 0.0051 0.0051-0.0051 0.01659 0 0.0217 0.0051 0.0051 0.01847-0.0065 0.0217 0 0.0065 0.01294-0.0065 0.03046 0 0.0434 0.0032 0.0065 0.01659-0.0051 0.0217 0 0.0051 0.0051-0.0051 0.01659 0 0.0217 0.02141 0.02141 0.0434-0.04447 0.0434 0.0217l0.86835 0.97684"/>
  <path d="m27.17 70.573 1.9097 2.5825 2.1485 1.0634"/>
 </g>
 <path d="m33.178 75.103c0-0.0363-0.0226-0.04334-0.18188-0.0566-0.1111-0.0093-0.22542-0.0058-0.29378 0.0088-0.32996 0.07076-0.8093 0.04796-1.1322-0.05386-0.15316-0.04829-0.33489-0.15377-0.37211-0.21597-0.0088-0.0147-0.04298-0.0333-0.07596-0.04133-0.03298-8e-3 -0.09644-0.03846-0.14103-0.06763-0.06192-0.0405-0.1399-0.06075-0.33001-0.08567-0.56201-0.07367-0.68483-0.11531-0.85624-0.29026-0.07326-0.07478-0.13235-0.11185-0.22184-0.1392-0.15588-0.04764-0.3021-0.17453-0.36227-0.31439-0.03799-0.08831-0.05891-0.10977-0.12781-0.13115-0.17571-0.05451-0.29568-0.14152-0.42231-0.30628-0.09986-0.12992-0.14131-0.16666-0.21146-0.18737-0.12182-0.03597-0.26918-0.12614-0.33609-0.20565-0.04159-0.04943-0.05654-0.09168-0.05654-0.15982 0-0.06657-0.01283-0.10424-0.04562-0.13392-0.06849-0.06198-0.10628-0.14869-0.10628-0.24382 0-0.09713-0.01392-0.11156-0.15962-0.16542-0.15417-0.057-0.24776-0.15056-0.32906-0.32897-0.0466-0.10225-0.08697-0.16108-0.11711-0.17064-0.0253-8e-3 -0.10806-0.07492-0.18392-0.14865-0.07585-0.07373-0.1639-0.15184-0.19566-0.17359-0.09212-0.06307-0.16374-0.19169-0.19011-0.34137-0.03439-0.19525-0.10036-0.25928-0.26712-0.25928h-0.12216l0.0041-0.16936c0.0036-0.14954-0.0026-0.17997-0.05313-0.25998-0.03146-0.04984-0.05721-0.09983-0.05721-0.11109 0-0.01126-0.02456-0.04965-0.05457-0.08532-0.03786-0.04499-0.04616-0.06774-0.02713-0.07426 0.01762-6e-3 0.0023-0.03301-0.04265-0.07532-0.0829-0.07795-0.11436-0.1514-0.11436-0.26697 0-0.06219-0.01142-0.09074-0.04304-0.10767-0.02368-0.01267-0.04077-0.03987-0.03798-0.06044 0.0028-0.02057-0.0047-0.04081-0.01663-0.04497-0.06731-0.02347-0.09766-0.05364-0.09766-0.09712 0-0.0269-0.02043-0.08759-0.0454-0.13487s-0.06788-0.15684-0.09535-0.24347l-0.04996-0.1575 0.05195-0.01304c0.08909-0.02236 0.05697-0.05173-0.05656-0.05173h-0.10851v-0.19186c0-0.10777-0.01417-0.23856-0.03232-0.29839-0.01777-0.05859-0.03242-0.13351-0.03255-0.16648-1.3e-4 -0.03297-0.02022-0.13063-0.04464-0.21701-0.02954-0.10451-0.05055-0.26961-0.06279-0.49343-0.01011-0.185-0.02536-0.35346-0.03388-0.37435-0.0091-0.02232-0.0058-0.03798 8e-3 -0.03798 0.0167 0 0.01688-0.01725 6.24e-4 -0.05968-0.07949-0.20749-0.10464-0.45661-0.12651-1.2533-0.02083-0.75847-0.06297-4.0241-0.07288-5.6478l-0.0045-0.74329 0.98741 2.6e-5 1e-4 0.76497c2.93e-4 2.2651 0.06927 6.1989 0.11283 6.4355l0.02517 0.13671 0.15486-0.013 0.14568 0.95018c0.10292 0.6713 0.15547 0.95997 0.17904 0.98354 0.01834 0.01834 0.03335 0.04678 0.03335 0.06319s0.03906 0.10532 0.08681 0.19758c0.04774 0.09226 0.08681 0.1746 0.08681 0.18298 0 0.0084 0.0165 0.05304 0.03666 0.09926s0.0377 0.0938 0.03896 0.10573c0.0013 0.01194 0.01321 0.01954 0.02654 0.01691 0.02171-0.0043 0.08126 0.11378 0.07524 0.14919-0.0013 0.0078 0.01193 0.02609 0.02945 0.04063s0.03186 0.03941 0.03186 0.05526 0.01237 0.03663 0.0275 0.04617c0.01512 0.0095 0.04009 0.06618 0.05549 0.12586 0.01539 0.05968 0.0372 0.11176 0.04846 0.11574 0.01126 4e-3 0.02047 0.01648 0.02047 0.02779s0.03398 0.05039 0.07551 0.08686 0.1106 0.12406 0.15348 0.19465c0.07359 0.12115 0.08268 0.12835 0.16201 0.12835h0.08404l0.0066 0.10267c0.0059 0.09228 0.0132 0.1049 0.07172 0.12466 0.08395 0.02836 0.11768 0.07148 0.11921 0.15244 9.38e-4 0.04937 0.03521 0.10123 0.14175 0.21453 0.07728 0.08219 0.14051 0.15795 0.14051 0.16837s0.0293 0.05939 0.0651 0.10882c0.03581 0.04943 0.06519 0.10062 0.06529 0.11374 1.09e-4 0.01313 0.03428 0.05984 0.07596 0.1038 0.04167 0.04396 0.07577 0.08817 0.07577 0.09825s0.03137 0.04585 0.06972 0.07949c0.05443 0.04776 0.08458 0.05877 0.1375 0.05018 0.07845-0.01273 0.09457-0.0041 0.14707 0.07832 0.02124 0.03336 0.06251 0.06974 0.09173 0.08084 0.02922 0.01111 0.05312 0.03363 0.05312 0.05005s0.04883 0.07484 0.10851 0.12981c0.05968 0.05497 0.10851 0.11568 0.10851 0.13491 0 0.04775 0.25035 0.29244 0.2992 0.29244 0.02485 0 0.04893 0.02662 0.06548 0.0724 0.01482 0.04098 0.06036 0.09513 0.10496 0.12478 0.04333 0.02881 0.10555 0.10122 0.13827 0.1609 0.04086 0.07455 0.08482 0.12079 0.14045 0.14776 0.04453 0.02159 0.07587 0.04435 0.06964 0.05059-0.0062 0.0062-0.03283-1.74e-4 -0.05911-0.01423-0.0381-0.02039-0.04587-0.01985-0.03836 0.0027 0.0052 0.01552 0.07222 0.04421 0.149 0.06375 0.17117 0.04356 0.34238 0.12874 0.41252 0.20523 0.02892 0.03154 0.09258 0.07518 0.14145 0.09698 0.04888 0.0218 0.14083 0.07896 0.20434 0.12703 0.06351 0.04807 0.24813 0.14806 0.41027 0.2222 0.16214 0.07414 0.32897 0.15544 0.37075 0.18066 0.04177 0.02522 0.12967 0.06317 0.19531 0.08434 0.1533 0.04944 0.63751 0.10232 0.94401 0.10308 0.30011 7.56e-4 0.67042 0.0359 0.67996 0.06454 4e-3 0.01196 0.02841 0.02106 0.05427 0.02022 0.04528-0.0015 0.04542-0.0022 0.0036-0.01849-0.04256-0.01664-0.0425-0.01725 0.0031-0.03176 0.02777-0.0088 0.078 1.95e-4 0.1245 0.02237 0.07391 0.03524 0.43131 0.03186 6.887-0.06518 3.745-0.05629 6.8945-0.10199 6.999-0.10154l0.18989 8.11e-4v0.96994l-0.86263 0.0148c-0.63487 0.01089-13.58 0.20842-13.683 0.20878-9e-3 2.2e-5 -0.01628-0.0186-0.01628-0.0414zm-6.9108-4.8785c-0.03318-0.02854-0.0654-0.04681-0.0716-0.0406-0.01807 0.01807 0.08903 0.119 0.11153 0.10509 0.01122-0.0069-0.0068-0.03595-0.03993-0.06449zm0.63913-0.99495c0-0.01861-0.0099-0.0277-0.02206-0.0202-0.01213 0.0075-0.01644 0.02272-0.0096 0.03383 0.0186 0.0301 0.03163 0.02449 0.03163-0.01363zm-0.75955-2.6762c0-0.01047-0.01465-0.0312-0.03255-0.04606-0.0272-0.02257-0.03255-0.01944-0.03255 0.01904 0 0.02647 0.01384 0.04606 0.03255 0.04606 0.0179 0 0.03255-0.0086 0.03255-0.01904z" stroke-width=".021701"/>
 <g fill="none" stroke="#000" stroke-width="1px">
  <path d="m25.521 31.944 0.62565 34.609"/>
  <path d="m33.529 74.631 34.006-0.49913-34.006 0.49913"/>
  <path d="m25.521 31.944 0.17361 34.722"/>
  <path d="m25.521 31.944 0.36892 34.896"/>
  <path d="m26.146 66.554 5.0819 7.6651"/>
  <path d="m26.906 69.23c5e-3 0.05459 5e-3 0.05459 0 0 0.11698 0.18726 0.24587 0.36759 0.35094 0.56178 0.01377 0.02545-0.02046 0.06634 0 0.0868 0.04575 0.04575 0.12786 0.04106 0.17361 0.08681 0.04092 0.04092-0.04092 0.13269 0 0.17361 0.02046 0.02046 0.06635-0.02046 0.08681 0s-0.02046 0.06634 0 0.0868 0.06076-0.0126 0.08681 0c0.06238 0.03018 0.11172 0.08204 0.16757 0.12306"/>
  <path d="m29.34 73.134-2.6911-5.3386"/>
  <path d="m25.521 31.944 1.2153 20.399-0.08681 15.451"/>
  <path d="m30.534 73.85 36.74-0.9332"/>
  <path d="m30.903 72.656 36.372 0.26042"/>
  <path d="m32.812 73.611h33.42"/>
  <path d="m53.038 73.785-21.354-0.43403"/>
  <path d="m57.465 73.872-25.781-0.52083"/>
  <path d="m30.903 72.656 1.9097 0.95486"/>
  <path d="m36.285 74.479-5.3819-1.8229"/>
  <path d="m29.167 71.441c0.11574 0 0.23373-0.0227 0.34722 0 0.04013 8e-3 0.05021 0.06851 0.08681 0.08681 0.02588 0.01294 0.05873-7e-3 0.08681 0 0.08877 0.02219 0.17165 0.06461 0.26042 0.0868 0.07396 0.01849 0.18388 0 0.26042 0"/>
  <path d="m26.476 32.031 1.0417 35.503"/>
  <path d="m27.517 32.292 0.60764 36.198"/>
  <path d="m27.517 67.535 4.1667 5.816"/>
  <path d="m67.274 72.917 0.26042 1.2153"/>
  <path d="m59.549 73.524 6.684 0.0868"/>
  <path d="m62.066 73.872 4.1667-0.26042 1.0417-0.69444 0.26042 1.2153"/>
  <path d="m67.188 71.962-35.503 0.17361-3.125-4.4271"/>
 </g>
</svg>
