<?xml version="1.0" encoding="UTF-8"?>
<!-- Created with Inkscape (http://www.inkscape.org/) -->
<svg width="50" height="50" version="1.1" viewBox="0 0 225 225" xmlns="http://www.w3.org/2000/svg" xmlns:cc="http://creativecommons.org/ns#" xmlns:dc="http://purl.org/dc/elements/1.1/" xmlns:rdf="http://www.w3.org/1999/02/22-rdf-syntax-ns#">
 <metadata>
  <rdf:RDF>
   <cc:Work rdf:about="">
    <dc:format>image/svg+xml</dc:format>
    <dc:type rdf:resource="http://purl.org/dc/dcmitype/StillImage"/>
    <dc:title/>
   </cc:Work>
  </rdf:RDF>
 </metadata>
 <path d="m-0.39062 112.5v-112.5h225v225h-225z" fill="#f8fbfc"/>
 <path d="m95.423 223.99c-18.223-2.8931-37.451-11.024-51.749-21.882-9.4715-7.1929-28.065-29.051-28.065-32.993 0-0.61354-0.38975-1.1155-0.86611-1.1155-0.9824 0-5.8216-10.526-8.9645-19.5-7.3614-21.018-7.877-44.016-1.5018-66.982 5.9328-21.372 19.147-41.517 36.332-55.386 2.475-1.9975 4.725-3.8784 5-4.1799 1.3037-1.4293 7.2335-5.0998 14.5-8.9752 10.698-5.7057 23.547-9.7064 37.5-11.676 19-2.6823 39.402 0.00245 57.788 7.6043 4.0084 1.6573 8.5778 3.9317 10.154 5.0543 1.5765 1.1226 3.2716 2.0411 3.7668 2.0411 3.0145 0 27.277 20.656 30.791 26.214 0.55 0.8699 2.5231 3.765 4.3847 6.4336 14.353 20.576 21.245 45.162 19.719 70.352-1.3482 22.261-8.625 42.408-21.683 60.033-16.583 22.383-39.425 37.169-67.92 43.97-6.0797 1.4509-32.133 2.1078-39.186 0.98804zm44.15-155.4c1.3949-1.3044 5.1381-3.1131 8.3181-4.0195 6.2956-1.7943 12.921-7.3299 16.341-13.654 2.7651-5.1128 2.5835-18.025-0.33087-23.515-2.5488-4.8012-8.1786-10.009-13.219-12.229-4.8575-2.139-34.254-2.9456-40.779-1.1189-14.085 3.9435-22.217 18.873-18.187 33.388 1.9394 6.9855 3.667 8.4813 9.8933 8.5662 12.08 0.16467 16.9 2.4342 16.966 7.9879 0.0291 2.4579 0.14736 2.4944 7.0318 2.1679 5.75-0.27268 7.0022-0.05968 7.0022 1.191 0 0.83767-0.45 1.8012-1 2.1411s-1 1.0977-1 1.684c0 1.7828 6.2041-0.01053 8.9638-2.5911zm-18.944-16.288c-10.455-5.424-10.904-21.138-0.77907-27.311 6.9068-4.2111 16.789-1.9333 21.97 5.064 4.2239 5.7051 1.9836 16.479-4.4189 21.251-3.8128 2.8419-12.247 3.3426-16.772 0.99562zm13.307-3.4084c2.558-1.1655 6.6733-7.5315 6.6733-10.323 0-2.7629-3.8687-9.4334-6.1923-10.677-3.0824-1.6496-8.8336-1.4522-12.47 0.42815-4.2704 2.2083-6.8398 8.6242-5.3101 13.259 2.3121 7.0058 10.435 10.44 17.299 7.3124zm-3.62-6.1413c-3.7161-2.1536-3.7873-2.306-3.5-7.4885 0.36792-6.6361 2.1904-7.3673 2.5971-1.042 0.25813 4.0151 0.74656 4.9868 3.25 6.4656 1.6204 0.95721 2.9462 2.3184 2.9462 3.0248 0 1.7569-0.88105 1.5972-5.2933-0.95988z" fill="#b4e1ed"/>
 <path d="m141.3 205.11c-1.4636-4.8894-3.133-10.131-3.7098-11.648-0.97999-2.5776-1.1354-2.6396-2.3725-0.94769-0.74297 1.0161-1.9886 1.5554-2.8388 1.2292-1.1762-0.45133-1.6482 0.46269-2.1107 4.0875-1.1725 9.1883-2.3485 11.653-6.229 13.056-4.0132 1.4512-5.352 0.92287-3.4546-1.3633 0.86505-1.0423 0.9101-1.5242 0.1425-1.5242-0.61734 0-1.1224-0.45-1.1224-1s1.5138-1 3.3641-1c3.1975 0 3.3936-0.21046 3.9606-4.25 0.32812-2.3375 0.9046-5.7578 1.2811-7.6007l0.6845-3.3507-6.4754 3.3485 0.68506-12.3-2.875 0.5767c-1.5812 0.31719-4.1688 0.5767-5.75 0.5767s-2.875 0.41775-2.875 0.92833-1.6572 3.7103-3.6827 7.1104c-3.3519 5.6268-3.801 6.0203-5 4.3805-0.72454-0.99086-1.3314-2.2781-1.3486-2.8604-0.0359-1.2195-4.6347 5.8266-6.0105 9.2091-0.99244 2.44-4.6016 4.2321-8.5234 4.2321-2.5436 0-3.3461-1.5266-1.1849-2.254 0.95252-0.32058 0.89302-0.85475-0.25-2.2445-1.3907-1.691-1.3179-1.785 1-1.2912 1.375 0.29293 3.175 0.80942 4 1.1478 1.0594 0.43446 2.419-0.95966 4.6284-4.746 2.6023-4.4595 2.8233-5.2814 1.3141-4.8867-1.4274 0.37327-1.9581-0.29169-2.4883-3.1179-0.37066-1.9758-0.43133-4.2246-0.13482-4.9972 0.38955-1.0152-1.3933-2.0262-6.4268-3.6447-3.8312-1.2319-9.3796-3.6933-12.33-5.4698-4.0022-2.41-6.6352-3.2586-10.372-3.3428-6.0957-0.13733-14.534-3.1702-20.161-7.2462-4.8887-3.5413-11.251-15.662-13.262-25.268-1.2273-5.8609-1.2273-5.861 1.6285-8.1381 1.5707-1.2524 5.0491-3.3044 7.7297-4.56l4.8739-2.2828v-8.1754c0-5.1797-0.53718-9.2522-1.466-11.114-0.8063-1.6163-1.7683-5.5104-2.1377-8.6536l-0.67168-5.715h4.1377c3.4548 0 4.1377-0.32624 4.1377-1.9768 0-3.9645 4.6083-13.397 8.896-18.209 4.825-5.4146 12.525-9.7647 21.104-11.922 5.8994-1.4837 25.958-1.8323 32.248-0.56051 5.8554 1.1841 6.4082 3.232 7.0638 26.168 0.49938 17.472 1.9079 32.052 3.2235 33.368 0.23029 0.23028 3.7135-2.5301 7.7404-6.1342 8.9396-8.0009 17.273-19.576 25.225-35.036 3.3-6.4161 6.2829-11.673 6.6287-11.682 0.34577-0.0089 1.1962 1.3539 1.8898 3.0285 1.4808 3.575 0.84026 17.035-1.0013 21.041-1.0971 2.3867-0.60404 3.4752 6.397 14.122 8.2542 12.552 8.6819 14.157 6.208 23.292-3.7844 13.974-12.487 28.832-24.017 41.003l-6.5207 6.8833 4.5592 7.5569c2.5076 4.1563 6.3135 9.9001 8.4576 12.764 2.1442 2.8639 3.8985 5.4872 3.8985 5.8295s-1.2695 0.34352-2.8212 3e-3c-2.2945-0.50397-3.0192-0.19211-3.8818 1.6705-1.3504 2.9156-9.228 12.79-10.204 12.79-0.40516 0-1.9342-4.0004-3.3978-8.8898zm-93.814-109.86c0.07288-1.3859-0.45774-2.25-1.3817-2.25-1.6493 0-1.8701 1.9853-0.79225 7.125l0.70775 3.375 0.67394-3c0.37067-1.65 0.72718-4.0125 0.79225-5.25zm75.738-42.241c-8.327-2.6197-13.047-13.415-9.1552-20.94 7.6329-14.76 29.536-9.9065 29.536 6.5453 0 9.7007-10.878 17.384-20.381 14.395zm11.468-4.2893c6.7496-4.5485 7.9629-12.315 2.8361-18.154-7.2384-8.244-20.479-4.2757-21.577 6.4667-1.0742 10.513 10.122 17.495 18.741 11.688zm-4.8376-6.835c-2.9416-1.8838-3.25-2.5465-3.25-6.9832 0-2.696 0.45-4.9018 1-4.9018s1 1.9883 1 4.4184c0 3.971 0.35447 4.6375 3.5 6.5816 1.925 1.1897 3.5 2.3514 3.5 2.5816 0 1.0285-2.772 0.21053-5.75-1.6966z" fill="#f9cf0b"/>
 <path d="m141.3 205.11c-1.4636-4.8894-3.133-10.131-3.7098-11.648-0.97999-2.5776-1.1354-2.6396-2.3725-0.94769-0.74297 1.0161-1.9886 1.5554-2.8388 1.2292-1.1762-0.45133-1.6482 0.46269-2.1107 4.0875-1.1725 9.1883-2.3485 11.653-6.229 13.056-4.0132 1.4512-5.352 0.92287-3.4546-1.3633 0.86505-1.0423 0.9101-1.5242 0.1425-1.5242-0.61734 0-1.1224-0.45-1.1224-1s1.5138-1 3.3641-1c3.1975 0 3.3936-0.21046 3.9606-4.25 0.32812-2.3375 0.9046-5.7578 1.2811-7.6007l0.6845-3.3507-6.4754 3.3485 0.68506-12.3-2.875 0.5767c-1.5812 0.31719-4.1688 0.5767-5.75 0.5767s-2.875 0.41775-2.875 0.92833-1.6572 3.7103-3.6827 7.1104c-3.3519 5.6268-3.801 6.0203-5 4.3805-0.72454-0.99086-1.3314-2.2781-1.3486-2.8604-0.0359-1.2195-4.6347 5.8266-6.0105 9.2091-0.99244 2.44-4.6016 4.2321-8.5234 4.2321-2.5436 0-3.3461-1.5266-1.1849-2.254 0.95252-0.32058 0.89302-0.85475-0.25-2.2445-1.3907-1.691-1.3179-1.785 1-1.2912 1.375 0.29293 3.175 0.80942 4 1.1478 1.0594 0.43446 2.419-0.95966 4.6284-4.746 2.6023-4.4595 2.8233-5.2814 1.3141-4.8867-1.4274 0.37327-1.9581-0.29169-2.4883-3.1179-0.37066-1.9758-0.43133-4.2246-0.13482-4.9972 0.38955-1.0152-1.3933-2.0262-6.4268-3.6447-3.8312-1.2319-9.3796-3.6933-12.33-5.4698-4.0022-2.41-6.6352-3.2586-10.372-3.3428-6.0957-0.13733-14.534-3.1702-20.161-7.2462-4.8877-3.5406-11.25-15.662-13.261-25.262-1.1952-5.7072-1.1637-5.9064 1.2428-7.855 1.358-1.0996 4.5689-3.0634 7.1354-4.364 4.5863-2.3241 4.7999-2.3391 12.445-0.87638 4.2781 0.81854 7.9578 1.6676 8.1771 1.8869 0.33066 0.33065 6.6994-1.6002 13.231-4.0113 0.825-0.30455 1.6747-0.48625 1.8882-0.40376 0.21351 0.0825 0.66351-0.25697 1-0.7543 0.53877-0.79633 8.3731-4.2666 9.632-4.2666 1.317 0 0.19909 4.1345-1.9901 7.3604l-2.4699 3.6395 3.2199-9e-3c1.7709-5e-3 5.5498-0.28861 8.3975-0.63072 5.1127-0.61422 5.1965-0.67999 6.6819-5.2413 0.82736-2.5406 1.7646-6.4193 2.0828-8.6193 0.31819-2.2 0.84989-5.4625 1.1816-7.25 0.70289-3.7881-0.80479-4.3433-2.3838-0.87777-1.3265 2.9117-8.7061 6.6281-13.161 6.6281-1.809 0-5.4543-1.0876-8.1008-2.4168-5.0586-2.5408-5.9787-2.4433-5.9787 0.63314 0 3.214-2.9229 7.7837-4.9786 7.7837-2.3622 0-7.0214-2.0419-7.0214-3.0771 0-0.41584 1.1936-1.6256 2.6525-2.6883 3.525-2.5678 2.2994-4.6351-2.2706-3.8302-1.86 0.32759-4.967 0.87103-6.9043 1.2076-7.5676 1.3149-11.741-3.4918-13.104-15.094l-0.64856-5.5183 4.3877-0.12762c2.4132-0.07019 5.5127-0.2926 6.8877-0.49423s9.3741-0.58456 17.776-0.85096c8.4848-0.26903 16.218-0.98841 17.394-1.6182 1.5902-0.85105 3.0207-0.83614 5.7353 0.05976 1.9892 0.65649 5.1867 1.0446 7.1057 0.86243 3.2207-0.30572 3.5124-0.61187 3.7934-3.9815 0.16743-2.0077-0.0576-5.0186-0.5-6.691l-0.80442-3.0407-9.33 3.9112c-20.838 8.7354-32.352 9.9424-38.282 4.0128-3.5199-3.5199-3.0384-5.5463 2.8824-12.132 4.9538-5.5099 12.63-9.8551 21.229-12.018 5.8994-1.4837 25.958-1.8323 32.248-0.56051 5.8554 1.1841 6.4082 3.232 7.0638 26.168 0.49938 17.472 1.9079 32.052 3.2235 33.368 0.23029 0.23028 3.7135-2.5301 7.7404-6.1342 8.9396-8.0009 17.273-19.576 25.225-35.036 3.3-6.4161 6.2829-11.673 6.6287-11.682 0.34577-0.0089 1.1962 1.3539 1.8898 3.0285 1.4808 3.575 0.84026 17.035-1.0013 21.041-1.0971 2.3867-0.60404 3.4752 6.397 14.122 8.2542 12.552 8.6819 14.157 6.208 23.292-3.7844 13.974-12.487 28.832-24.017 41.003l-6.5207 6.8833 4.5592 7.5569c2.5076 4.1563 6.3135 9.9001 8.4576 12.764 2.1442 2.8639 3.8985 5.4872 3.8985 5.8295s-1.2695 0.34352-2.8212 3e-3c-2.2945-0.50397-3.0192-0.19211-3.8818 1.6705-1.3504 2.9156-9.228 12.79-10.204 12.79-0.40516 0-1.9342-4.0004-3.3978-8.8898zm-47.458-97.172c3.0421-1.3861 7.3583-8.4369 8.0729-13.188 0.53303-3.5435 0.41609-3.7498-2.123-3.7468-2.4622 0.0029-2.6913 0.34-2.7368 4.0269-0.1068 8.6528-8.9318 11.849-12.058 4.3666-0.76582-1.8329-1.3921-4.3594-1.3918-5.6146 5.77e-4 -2.1182-0.35862-2.2572-5-1.9356-4.7066 0.32614-5.0006 0.50848-5.0006 3.1008 0 7.9502 5.9429 14.053 13.685 14.053 2.3214 0 5.2699-0.478 6.5521-1.0622zm-34.981-2.5134c2.5197-2.8929 4.7944-7.8574 2.5999-5.6744-2.4692 2.4563-4.7261 1.4175-5.9747-2.75-1.1837-3.9509-1.2579-4-6.0401-4-4.0675 0-4.8417 0.29984-4.8417 1.875 0 10.631 8.6259 17.014 14.257 10.549zm9.1616-7.0313c2.2712-0.87156 2.1756-6.654-0.10276-6.2152-1.0651 0.20511-1.821 1.5192-2.0555 3.5733-0.39519 3.4607-0.29501 3.5833 2.1583 2.6419zm55.201-45.384c-8.327-2.6197-13.047-13.415-9.1552-20.94 7.6329-14.76 29.536-9.9065 29.536 6.5453 0 9.7007-10.878 17.384-20.381 14.395zm11.468-4.2893c6.7496-4.5485 7.9629-12.315 2.8361-18.154-7.2384-8.244-20.479-4.2757-21.577 6.4667-1.0742 10.513 10.122 17.495 18.741 11.688zm-4.8376-6.835c-2.9416-1.8838-3.25-2.5465-3.25-6.9832 0-2.696 0.45-4.9018 1-4.9018s1 1.9883 1 4.4184c0 3.971 0.35447 4.6375 3.5 6.5816 1.925 1.1897 3.5 2.3514 3.5 2.5816 0 1.0285-2.772 0.21053-5.75-1.6966z" fill="#f4941e"/>
 <path d="m141.3 205.11c-4.1401-13.83-4.6461-14.95-5.8154-12.86-1.2499 2.2334-3.5035 2.2451-4.7462 0.0247-0.91336-1.6321-1.1641-1.6306-4.6399 0.0268l-3.6743 1.7522 0.34018-6.0286c0.30914-5.4787 0.15773-6.0275-1.6598-6.0158-3.7972 0.0244-9.5 1.255-9.5 2.05 0 0.43861-1.6572 3.5794-3.6827 6.9796-3.3519 5.6268-3.801 6.0203-5 4.3805-0.72454-0.99089-1.3173-2.5922-1.3173-3.5584 0-1.5243-0.40382-1.6161-3.051-0.69325-1.6781 0.58498-3.3483 0.76637-3.7116 0.40308-0.36328-0.36328-0.74368-2.7778-0.84532-5.3656-0.17699-4.5061-0.33934-4.7488-3.8378-5.7391-2.0092-0.56867-3.2933-1.4283-2.8536-1.9103 0.449-0.49225 0.21341-0.53754-0.53749-0.10334-1.5832 0.91547-8.8223-2.1217-9.5448-4.0046-0.2747-0.71587 0.14879-1.8396 0.9411-2.4971 0.79231-0.65756 1.4406-1.8155 1.4406-2.5731 0-0.75766 0.4133-1.3776 0.91844-1.3776 0.50514 0 1.9439-1.6875 3.1972-3.75s2.5408-3.975 2.8611-4.25c0.61181-0.52532 6.6583-12.94 9.3084-19.112 0.85301-1.9866 1.8617-5.6846 2.2416-8.2178 0.78638-5.2439 1.593-6.1263 6.443-7.0484 1.9084-0.36282 6.0389-1.8728 9.179-3.3556 4.9495-2.3372 5.8097-3.1664 6.4645-6.231 0.60804-2.8461 0.83033-3.0966 1.1405-1.2851 0.21191 1.2375 0.64062 2.25 0.95269 2.25s3.7901-2.8843 7.7289-6.4095c8.7873-7.8646 17.154-19.511 25.065-34.892 3.3-6.4161 6.2829-11.673 6.6287-11.682 0.34577-0.0089 1.1962 1.3539 1.8898 3.0285 1.4808 3.575 0.84026 17.035-1.0013 21.041-1.0971 2.3867-0.60404 3.4752 6.397 14.122 8.2542 12.552 8.6819 14.157 6.208 23.292-3.7844 13.974-12.487 28.832-24.017 41.003l-6.5207 6.8833 4.5592 7.5569c2.5076 4.1563 6.3135 9.9001 8.4576 12.764 2.1442 2.8639 3.8985 5.4872 3.8985 5.8295 0 0.3423-1.2695 0.34352-2.8212 3e-3 -2.2945-0.50397-3.0192-0.19211-3.8818 1.6705-1.3504 2.9156-9.228 12.79-10.204 12.79-0.40516 0-1.9342-4.0004-3.3978-8.8898zm-55.695-0.0872c0-0.43439 1.1114-1.0023 2.4697-1.2619 1.3584-0.25966 2.2654-0.14144 2.0156 0.26272-0.66449 1.0752-4.4853 1.9264-4.4853 0.99921zm42.651-5.4909c-0.30982-0.80739-0.22638-1.6762 0.18543-1.9307s0.81419 0.40608 0.89418 1.468c0.17299 2.2966-0.29838 2.4986-1.0796 0.46275zm-56.101-27.451c-0.31245-0.50555-3.1834-0.93169-6.3798-0.94698-6.8063-0.0325-15.143-2.8825-21.14-7.2271-4.8877-3.5406-11.25-15.662-13.261-25.262-1.1952-5.7072-1.1637-5.9064 1.2428-7.855 3.6807-2.9804 11.925-6.9464 13.026-6.2661 0.52938 0.32718 0.96251 1.7513 0.96251 3.1647 0 2.5164 0.10737 2.5556 5.1631 1.8849 5.1063-0.67737 23.405-6.1118 25.337-7.5249 0.55-0.40219 2.9657-1.4951 5.3683-2.4288l4.3683-1.6975-0.68474 2.7282c-0.87583 3.4896-4.1158 8.0465-6.707 9.4333-1.1089 0.59345-1.7634 1.3317-1.4546 1.6405 0.30881 0.30882 1.2257 0.0102 2.0376-0.66359 0.81187-0.6738 2.2019-1.0754 3.089-0.89251 1.3978 0.28822 1.3414 0.62291-0.42244 2.5091-1.4225 1.5211-1.6678 2.3254-0.81486 2.671 0.69421 0.28129 0.46588 0.52859-0.52952 0.57349-0.9625 0.0434-1.75 0.75395-1.75 1.579s-0.35298 1.5-0.78439 1.5c-0.43142 0-1.5323 1.2662-2.4465 2.8137-1.2912 2.1859-1.7298 5.9777-1.9656 16.995-0.27965 13.066-0.73262 15.733-2.2536 13.272zm-0.84421-26.331c-0.23835-1.2375-0.43337-0.225-0.43337 2.25s0.19502 3.4875 0.43337 2.25 0.23835-3.2625 0-4.5zm8.7939-35.136c-1.6502-0.7192-3.6137-2.0466-4.3633-2.9498s-1.8315-1.3526-2.4041-0.99872c-0.581 0.35908-0.74471 0.16376-0.37038-0.44191 0.36895-0.59698 0.23331-1.3558-0.30142-1.6863s-1.5006-3.2866-2.1464-6.5691c-0.93342-4.7445-1.5576-5.9682-3.0441-5.9682-1.4574 0-1.8699 0.745-1.8699 3.3776 0 1.8577-0.675 3.9378-1.5 4.6224-1.0859 0.90123-1.5 0.92532-1.5 0.0873 0-0.81912-0.54444-0.86626-1.8619-0.1612-2.5922 1.3873-5.1582-0.6965-5.4718-4.4434-0.24477-2.9246-0.34605-2.9763-5.2002-2.6571-2.7228 0.17905-5.1208 0.49576-5.3288 0.7038-0.99276 0.99276 1.2009 9.6309 3.0393 11.968 1.6964 2.1566 2.828 2.6089 6.1993 2.4776 6.6858-0.26023 7.3587-0.0383 4.6241 1.525-3.3556 1.9182-6.5955 1.852-10.08-0.20606-3.6401-2.1503-5.6821-6.4142-6.5311-13.638l-0.66474-5.6559h7.471c4.1091 0 7.8066-0.33554 8.2166-0.74564 0.4101-0.4101 6.7945-0.5895 14.188-0.39866 11.377 0.29368 13.842 0.08504 16.045-1.3585 2.0768-1.3608 3.0926-1.4823 5.0262-0.60134 1.3361 0.60877 7.7859 1.1041 14.376 1.1041 7.302 0 11.953 0.38911 11.953 1 0 0.90406-2.274 1.1981-10.14 1.3109-2.3625 0.0339-2.7101 0.51828-3.3108 4.6135-0.36916 2.5166-0.74026 5.3417-0.82468 6.278-0.0844 0.93631-0.35546 1.5004-0.60229 1.2536-0.24684-0.24683-1.2713 0.90371-2.2766 2.5568-3.8729 6.3685-13.681 8.9421-21.346 5.6014zm15.5-3.4564c3.2491-2.3221 6.2694-8.4804 6.3982-13.045 0.0906-3.2136-0.17407-3.6123-2.3982-3.6123-2.2305 0-2.5575 0.4998-3.0334 4.6365-0.64802 5.6331-2.3312 7.8635-5.9341 7.8635-3.9 0-6.5163-3.3285-6.3904-8.13l0.1039-3.9623-5.623 0.29612c-5.2643 0.27723-5.6427 0.46669-5.9321 2.9701-0.34398 2.9759 2.586 9.4124 5.4732 12.023 4.5429 4.1081 12.328 4.5394 17.336 0.9603zm-26.376-4.6963c-0.96498-2.5147-0.68031-3.1636 0.49853-1.1363 0.58369 1.0038 0.8506 2.0356 0.59313 2.2931-0.25747 0.25747-0.74872-0.26309-1.0917-1.1568zm42.904 0.63156-4.9724-0.5929 2.9724-1.8833c1.6348-1.0358 4.1686-3.1557 5.6304-4.711 2.1524-2.2898 2.7706-2.5342 3.25-1.2849 1.1178 2.913 0.6559 9.3872-0.65799 9.2221-0.6875-0.0864-3.4876-0.42391-6.2225-0.74999zm-54.028-19.248c-5.8741-3.2129-5.8325-7.1469 0.14598-13.796 8.5443-9.5034 20.06-13.559 38.354-13.507 19.979 0.05637 22 1.3343 22 13.909 0 6.9401-0.83316 7.9156-4.1763 4.8901-3.0785-2.786-10.255-2.0564-19.555 1.988-4.5271 1.9687-11.212 4.5002-14.855 5.6255-7.2233 2.231-18.617 2.6945-21.914 0.89128zm65.119-30.836c-8.327-2.6197-13.047-13.415-9.1552-20.94 7.6329-14.76 29.536-9.9065 29.536 6.5453 0 9.7007-10.878 17.384-20.381 14.395zm11.468-4.2893c6.7496-4.5485 7.9629-12.315 2.8361-18.154-7.2384-8.244-20.479-4.2757-21.577 6.4667-1.0742 10.513 10.122 17.495 18.741 11.688zm-4.8376-6.835c-2.9416-1.8838-3.25-2.5465-3.25-6.9832 0-2.696 0.45-4.9018 1-4.9018s1 1.9883 1 4.4184c0 3.971 0.35447 4.6375 3.5 6.5816 1.925 1.1897 3.5 2.3514 3.5 2.5816 0 1.0285-2.772 0.21053-5.75-1.6966z" fill="#2d94ce"/>
 <path d="m143.17 210.48c-1.7074-4.0863-1.9893-6.4797-0.76338-6.4797 1.2022 0 3.2074-8.449 3.2074-13.514 0-2.4671 0.46802-4.4856 1.0401-4.4856 0.57203 0 2.7095 1.6962 4.75 3.7693 2.0405 2.0731 4.9374 4.6474 6.4376 5.7206 3.9742 2.843 4.4651 4.8127 1.0214 4.0984-2.3639-0.49035-3.0747-0.0462-5.0738 3.1708-1.2786 2.0576-3.8409 5.4743-5.694 7.5928l-3.3693 3.8519zm-57.556-5.4568c0-0.43439 1.1114-1.0023 2.4697-1.2619 1.3584-0.25966 2.2654-0.14144 2.0156 0.26272-0.66449 1.0752-4.4853 1.9264-4.4853 0.99921zm42.651-5.4909c-0.30982-0.80739-0.22638-1.6762 0.18543-1.9307s0.81419 0.40608 0.89418 1.468c0.17299 2.2966-0.29838 2.4986-1.0796 0.46275zm-25.824-6.532c-0.69407-1.925-1.1609-3.8469-1.0374-4.2708 0.12351-0.42394-0.86311-0.4978-2.1925-0.16415-1.7166 0.43083-2.5585 0.14136-2.9051-0.99881-0.40237-1.3236-0.46112-1.3024-0.33461 0.1203 0.08441 0.94917 1.2761 2.0033 2.6482 2.3425 2.3836 0.58926 2.352 0.6389-0.70923 1.1139l-3.204 0.49716-0.29602-5.0425c-0.28788-4.9039-0.40049-5.0717-4.0954-6.104-2.0897-0.58381-3.4397-1.4558-3-1.9378 0.449-0.49225 0.21341-0.53754-0.53749-0.10334-1.5832 0.91547-8.8223-2.1217-9.5448-4.0046-0.2747-0.71587 0.14879-1.8396 0.9411-2.4971 0.79231-0.65756 1.4406-1.8155 1.4406-2.5731 0-0.75766 0.4133-1.3776 0.91844-1.3776 0.50514 0 1.9439-1.6875 3.1972-3.75s2.5408-3.975 2.8611-4.25c0.61181-0.52532 6.6583-12.94 9.3084-19.112 0.85301-1.9866 1.8617-5.6846 2.2416-8.2178 0.78767-5.2526 1.5938-6.13 6.4732-7.0453 3.9691-0.74457 14.149-5.4359 15.184-6.9974 0.37621-0.5676 0.46533-1.3858 0.19806-1.8183-0.26728-0.43246 0.21242-0.5183 1.066-0.19076 1.8579 0.71296 2.0652 2.3691 0.30194 2.412-0.69372 0.0169-0.47121 0.48401 0.5 1.0497 0.9625 0.56059 1.75 1.7123 1.75 2.5593 0 3.3228 6.6006 20.561 13.061 34.111 3.7369 7.8375 6.4895 14.257 6.1167 14.265-0.37275 8e-3 -3e-3 0.49268 0.82228 1.0761 1.1348 0.80257 1.1942 1.1848 0.24377 1.5701-0.69093 0.2801-0.9589 0.99037-0.59549 1.5784 0.37641 0.60905 0.19201 0.77941-0.42853 0.39589-1.2978-0.80211-10.328 3.3795-9.6541 4.4704 0.25684 0.41558-0.0173 1.0549-0.60917 1.4207-0.70012 0.4327-0.4879 1.0952 0.60734 1.8961 1.0649 0.77869 1.7231 2.7405 1.7912 5.3393 0.1221 4.6567-0.38606 5.5468-2.6672 4.6714-1.421-0.5453-1.3887-0.83843 0.29144-2.6419 1.547-1.6606 1.675-2.3756 0.70527-3.9421-1.1129-1.7978-1.2148-1.7534-1.6846 0.73227-0.36319 1.9219-1.5378 3.059-4.2927 4.1559-2.086 0.83053-4.085 1.2177-4.4422 0.8605-0.35725-0.35726-0.191-2.888 0.36945-5.624 1.0127-4.9439 1.0032-4.9744-1.5578-4.9634-7.5012 0.032-9.9648 1.1284-12.056 5.3653-1.1195 2.268-2.9122 5.2487-3.9838 6.6237l-1.9484 2.5zm2.1939-1.9873c-1.8509-1.1439-2.2419-0.75289-1.4114 1.4114 0.48051 1.2522 0.95337 1.4133 1.7652 0.60149s0.71703-1.351-0.35382-2.0128zm2.5554-3.3452c1.0214 0.39193 1.262 0.0739 0.81861-1.0817-0.48678-1.2685-0.93939-1.3785-2.0113-0.4889-0.76077 0.63138-1.3477 1.6554-1.3043 2.2755 0.0535 0.76457 0.23529 0.74324 0.56461-0.0663 0.26711-0.65661 1.1367-0.944 1.9324-0.63866zm19.849-4.5177c-0.86969-1.0442-2.4185 1.3374-2.3796 3.6592l0.0451 2.691 1.313-3c0.72217-1.65 1.1818-3.1576 1.0214-3.3501zm2.7932 2.8187c0.30123-2.0524 0.11685-2.7034-0.57089-2.0156-1.1895 1.1895-1.643 5.047-0.59341 5.047 0.39566 0 0.91959-1.3641 1.1643-3.0314zm-26.551 0.53142c0-0.90476-0.92593-1.5-2.3333-1.5-1.2833 0-2.3333 0.49814-2.3333 1.107 0 0.60884 0.66059 0.8535 1.468 0.54367 0.80739-0.30982 1.734-0.13297 2.059 0.39301 0.82933 1.3419 1.1397 1.1938 1.1397-0.54367zm-5.1667-2.5c0.33992-0.55-0.11008-1-1-1s-1.3399 0.45-1 1 0.78992 1 1 1 0.66008-0.45 1-1zm32.5-3c0.825-0.53316 1.05-0.96937 0.5-0.96937s-1.675 0.43621-2.5 0.96937-1.05 0.96937-0.5 0.96937 1.675-0.43621 2.5-0.96937zm-59.227-9.3751c-1.4519-1.1026-1.6465-2.4911-1.2219-8.7182 0.27776-4.0736 0.69366-11.536 0.92422-16.584 0.31086-6.8053 0.86658-9.6996 2.1502-11.199 0.95207-1.1119 2.1008-1.7932 2.5527-1.5139 0.45189 0.27929 0.82162 0.14109 0.82162-0.30711 0-1.0569 5.6822-3.5757 7.0431-3.1221 0.57436 0.19145 0.13793 1.321-0.96986 2.51-1.411 1.5145-1.6486 2.3101-0.79368 2.6565 0.69421 0.2813 0.46588 0.52859-0.52952 0.57349-0.9625 0.0434-1.75 0.75395-1.75 1.579s-0.35298 1.5-0.78439 1.5c-0.43142 0-1.5323 1.2662-2.4465 2.8137-1.2912 2.1859-1.7298 5.9777-1.9656 16.995-0.16694 7.7997-0.52853 14.169-0.80353 14.155s-1.2771-0.61691-2.2269-1.3382zm-37.273-41.638c4.8191-3.3514 10.499-6.1059 11.419-5.5374 0.46772 0.28907 1.0459 1.8573 1.2848 3.485 0.23889 1.6277 0.06578 2.7316-0.3847 2.4532-0.45048-0.27841-0.81906-1.3172-0.81906-2.3085 0-1.3594-0.58533-1.6904-2.3818-1.347-1.7618 0.33679-2.252 0.9515-1.8834 2.3613 0.27414 1.0483 0.10845 1.9407-0.3682 1.983-0.47665 0.0423-2.8916 0.28393-5.3666 0.53683l-4.5 0.45982zm9.0829 0.14687c-0.43077-0.697-0.51316-1.5373-0.18308-1.8674 0.89496-0.89496 1.8708 0.4213 1.3874 1.8714-0.33872 1.0162-0.57427 1.0154-1.2043-4e-3zm34.417-0.39903c0-0.73435 0.55123-1.8864 1.225-2.5601 0.96661-0.96661 0.952-1.662-0.06929-3.2974-1.517-2.4291-1.7975-2.1076 3.7126-4.2543l4.3683-1.7018-0.68474 2.7282c-1.2966 5.166-8.5518 12.874-8.5518 9.0854zm83.25-2.4245c2.1379-0.55868 2.3274-2.3107 0.25-2.3107-0.825 0-1.5-0.73225-1.5-1.6272 0-1.3557-0.85659-1.5449-5.1339-1.1339-4.1162 0.39551-5.5038 0.12339-7-1.3728-1.0264-1.0263-2.3161-1.8661-2.8661-1.8661-1.9561 0-0.89638-3.5495 2.0152-6.75 3.3796-3.715 4.9848-4.1236 4.9848-1.269 0 2.4323 3.9549 3.6487 6.8411 2.1041 3.743-2.0032 5.4705-1.3933 4.8495 1.7121-0.86519 4.326 0.49481 5.558 5.9093 5.3532l4.7773-0.1807-2.3906 2.5447c-1.4066 1.4973-3.0152 2.305-3.9081 1.9624-0.83464-0.32028-1.2152-0.27998-0.84562 0.0896 1.2259 1.226-2.0451 3.4356-4.9114 3.3178-1.6902-0.0695-2.1198-0.29935-1.0714-0.57332zm-3.1843-9.3458c1.4428-0.77215 1.9521-0.70862 2.0046 0.25 0.0386 0.70685 0.43217 0.38518 0.87447-0.71482 1.1308-2.8122 0.73396-2.884-3.082-0.55763-3.4413 2.098-3.2843 2.8888 0.20296 1.0224zm-77.566-7.3507c-1.6502-0.7192-3.6137-2.0466-4.3633-2.9498s-1.8315-1.3526-2.4041-0.99872c-0.581 0.35908-0.74471 0.16376-0.37038-0.44191 0.36895-0.59698 0.23331-1.3558-0.30142-1.6863s-1.5006-3.2866-2.1464-6.5691c-0.93342-4.7445-1.5576-5.9682-3.0441-5.9682-1.4574 0-1.8699 0.745-1.8699 3.3776 0 1.8577-0.675 3.9378-1.5 4.6224-1.0859 0.90123-1.5 0.92532-1.5 0.0873 0-0.81912-0.54444-0.86626-1.8619-0.1612-2.5922 1.3873-5.1582-0.6965-5.4718-4.4434-0.24477-2.9246-0.34605-2.9763-5.2002-2.6571-2.7228 0.17905-5.1208 0.49576-5.3288 0.7038-0.99276 0.99276 1.2009 9.6309 3.0393 11.968 1.6964 2.1566 2.828 2.6089 6.1993 2.4776 6.6858-0.26023 7.3587-0.0383 4.6241 1.525-3.3556 1.9182-6.5955 1.852-10.08-0.20606-3.6401-2.1503-5.6821-6.4142-6.5311-13.638l-0.66474-5.6559h7.471c4.1091 0 7.8066-0.33554 8.2166-0.74564 0.4101-0.4101 6.7945-0.5895 14.188-0.39866 11.377 0.29368 13.842 0.08504 16.045-1.3585 2.0768-1.3608 3.0926-1.4823 5.0262-0.60134 1.3361 0.60877 7.7859 1.1041 14.376 1.1041 7.302 0 11.953 0.38911 11.953 1 0 0.90406-2.274 1.1981-10.14 1.3109-2.3625 0.0339-2.7101 0.51828-3.3108 4.6135-0.36916 2.5166-0.74026 5.3417-0.82468 6.278-0.0844 0.93631-0.35546 1.5004-0.60229 1.2536-0.24684-0.24683-1.2713 0.90371-2.2766 2.5568-3.8729 6.3685-13.681 8.9421-21.346 5.6014zm15.5-3.4564c3.2491-2.3221 6.2694-8.4804 6.3982-13.045 0.0906-3.2136-0.17407-3.6123-2.3982-3.6123-2.2305 0-2.5575 0.4998-3.0334 4.6365-0.64802 5.6331-2.3312 7.8635-5.9341 7.8635-3.9 0-6.5163-3.3285-6.3904-8.13l0.1039-3.9623-5.623 0.29612c-5.2643 0.27723-5.6427 0.46669-5.9321 2.9701-0.34398 2.9759 2.586 9.4124 5.4732 12.023 4.5429 4.1081 12.328 4.5394 17.336 0.9603zm-26.376-4.6963c-0.96498-2.5147-0.68031-3.1636 0.49853-1.1363 0.58369 1.0038 0.8506 2.0356 0.59313 2.2931-0.25747 0.25747-0.74872-0.26309-1.0917-1.1568zm93.526-23.781c-0.74286-2.101-1.9456-4.0483-2.6727-4.3273-0.72711-0.27902-1.5707-1.1555-1.8747-1.9477-0.57887-1.5085 2.2618-8.405 3.462-8.405 1.6273 0 3.018 6.1371 2.7382 12.083l-0.30206 6.4172zm-47.642-2.6685c-0.35034-0.56686 0.0511-0.73451 0.94098-0.39301 1.7324 0.66479 2.0494 1.3816 0.61096 1.3816-0.51754 0-1.2159-0.44485-1.5519-0.98855zm8.1122-23.002c-8.327-2.6197-13.047-13.415-9.1552-20.94 7.6329-14.76 29.536-9.9065 29.536 6.5453 0 9.7007-10.878 17.384-20.381 14.395zm11.468-4.2893c6.7496-4.5485 7.9629-12.315 2.8361-18.154-7.2384-8.244-20.479-4.2757-21.577 6.4667-1.0742 10.513 10.122 17.495 18.741 11.688zm-4.8376-6.835c-2.9416-1.8838-3.25-2.5465-3.25-6.9832 0-2.696 0.45-4.9018 1-4.9018s1 1.9883 1 4.4184c0 3.971 0.35447 4.6375 3.5 6.5816 1.925 1.1897 3.5 2.3514 3.5 2.5816 0 1.0285-2.772 0.21053-5.75-1.6966z" fill="#f27c1d"/>
 <path d="m143.17 210.48c-1.7074-4.0863-1.9893-6.4797-0.76338-6.4797 1.2022 0 3.2074-8.449 3.2074-13.514 0-2.4671 0.46802-4.4856 1.0401-4.4856 0.57203 0 2.7095 1.6962 4.75 3.7693 2.0405 2.0731 4.9374 4.6474 6.4376 5.7206 3.9742 2.843 4.4651 4.8127 1.0214 4.0984-2.3639-0.49035-3.0747-0.0462-5.0738 3.1708-1.2786 2.0576-3.8409 5.4743-5.694 7.5928l-3.3693 3.8519zm-40.568-17.112c-1.0328-2.9382-1.314-3.0839-4.5443-2.3553l-3.4433 0.7766v-4.8947c0-4.025 0.31093-4.8807 1.75-4.8157 1.0557 0.0476 1.2516 0.27987 0.49377 0.58541-0.69093 0.27855-0.98836 0.93988-0.66097 1.4696 0.37102 0.60031 1.0939 0.54931 1.9189-0.1354 0.74237-0.6161 3.9982-0.9668 7.4138-0.79855l6.0901 0.29998-2.0174 4c-1.1096 2.2-2.8909 5.125-3.9585 6.5l-1.9411 2.5zm2.033-2.3554c-1.8509-1.1439-2.2419-0.75289-1.4114 1.4114 0.48051 1.2522 0.95337 1.4133 1.7652 0.60149s0.71703-1.351-0.35382-2.0128zm-3.4958-2.0528c0.41682-0.67443-0.26555-0.8121-1.941-0.39159-2.0515 0.5149-2.5838 0.28283-2.5838-1.1266 0-0.97629-0.28059-1.4945-0.62354-1.1515-0.34295 0.34294-0.35707 1.3179-0.03138 2.1667 0.66903 1.7435 4.2011 2.0865 5.1797 0.50305zm6.0512-1.2924c1.0214 0.39194 1.262 0.0739 0.81861-1.0817-0.48678-1.2685-0.93939-1.3785-2.0113-0.4889-0.76077 0.63138-1.3477 1.6554-1.3043 2.2755 0.0535 0.76457 0.23529 0.74324 0.56461-0.0663 0.26711-0.65661 1.1367-0.944 1.9324-0.63866zm-3.9093-1.1675c0-0.90476-0.92593-1.5-2.3333-1.5-1.2833 0-2.3333 0.49814-2.3333 1.107 0 0.60884 0.66059 0.8535 1.468 0.54367 0.80739-0.30982 1.734-0.13297 2.059 0.39301 0.82933 1.3419 1.1397 1.1938 1.1397-0.54367zm28.613 6.8476c-0.86428-0.35021-0.66448-1.0914 0.68457-2.5394 1.5615-1.676 1.6914-2.3913 0.72048-3.966-1.1156-1.8093-1.2031-1.7725-1.5024 0.63327-0.22903 1.8405-1.3112 2.9694-3.8721 4.0395-1.9548 0.81678-3.9493 1.4851-4.4321 1.4851-1.1854 0-1.0976-3.6686 0.19965-8.3404 0.95415-3.4362 1.3307-3.774 3.5782-3.2099 1.6045 0.4027 2.2822 0.25886 1.8761-0.39819-0.37804-0.61168-7e-3 -0.78724 0.91621-0.4331 0.85576 0.32839 1.5519 0.0725 1.5519-0.57047 0-0.6413 0.47185-0.87438 1.0486-0.51796 0.72809 0.44999 0.72029 1.0436-0.0255 1.9422-0.78466 0.94547-0.70133 1.4372 0.30926 1.825 1.6447 0.63114 2.7876 5.5282 1.9963 8.554-0.57407 2.1952-0.91327 2.3617-3.0491 1.4962zm-4.8548-10.198c-0.86969-1.0442-2.4185 1.3374-2.3796 3.6592l0.0451 2.691 1.313-3c0.72217-1.65 1.1818-3.1576 1.0214-3.3501zm2.7932 2.8187c0.30123-2.0524 0.11685-2.7034-0.57089-2.0156-1.1895 1.1895-1.643 5.047-0.59341 5.047 0.39566 0 0.91959-1.3641 1.1643-3.0314zm-59.946-21.969c0-2.475 0.19502-3.4875 0.43337-2.25s0.23835 3.2625 0 4.5-0.43337 0.225-0.43337-2.25zm0.80658-21.583c0.04798-1.165 0.28494-1.4019 0.60417-0.60417 0.28887 0.72187 0.25334 1.5844-0.07895 1.9167-0.33229 0.33229-0.56864-0.25834-0.52522-1.3125zm-36.579-12.429c4.8191-3.3514 10.499-6.1059 11.419-5.5374 0.46772 0.28907 1.0459 1.8573 1.2848 3.485 0.23889 1.6277 0.06578 2.7316-0.3847 2.4532-0.45048-0.27841-0.81906-1.3172-0.81906-2.3085 0-1.3594-0.58533-1.6904-2.3818-1.347-1.7618 0.33679-2.252 0.9515-1.8834 2.3613 0.27414 1.0483 0.10845 1.9407-0.3682 1.983-0.47665 0.0423-2.8916 0.28393-5.3666 0.53683l-4.5 0.45982zm9.0829 0.14687c-0.43077-0.697-0.51316-1.5373-0.18308-1.8674 0.89496-0.89496 1.8708 0.4213 1.3874 1.8714-0.33872 1.0162-0.57427 1.0154-1.2043-4e-3zm34.417-0.41116c0-0.72768 0.55123-1.8743 1.225-2.548 0.96661-0.96661 0.96661-1.6386 0-3.1864-0.67373-1.0788-1.225-2.1213-1.225-2.3168 0-0.62417 8.1755-2.8296 8.6671-2.3381 0.25982 0.25983-0.43306 2.2473-1.5398 4.4166-2.1506 4.2156-7.1274 8.3861-7.1274 5.9727zm83.25-2.4124c2.1379-0.55868 2.3274-2.3107 0.25-2.3107-0.825 0-1.5-0.73225-1.5-1.6272 0-1.3557-0.85659-1.5449-5.1339-1.1339-4.1162 0.39551-5.5038 0.12339-7-1.3728-1.0264-1.0263-2.3161-1.8661-2.8661-1.8661-1.9561 0-0.89638-3.5495 2.0152-6.75 3.3796-3.715 4.9848-4.1236 4.9848-1.269 0 2.4323 3.9549 3.6487 6.8411 2.1041 3.743-2.0032 5.4705-1.3933 4.8495 1.7121-0.86519 4.326 0.49481 5.558 5.9093 5.3532l4.7773-0.1807-2.3906 2.5447c-1.4066 1.4973-3.0152 2.305-3.9081 1.9624-0.83464-0.32028-1.2152-0.27998-0.84562 0.0896 1.2259 1.226-2.0451 3.4356-4.9114 3.3178-1.6902-0.0695-2.1198-0.29935-1.0714-0.57332zm-3.1843-9.3458c1.4428-0.77215 1.9521-0.70862 2.0046 0.25 0.0386 0.70685 0.43217 0.38518 0.87447-0.71482 1.1308-2.8123 0.73396-2.884-3.082-0.55764-3.4413 2.098-3.2843 2.8888 0.20296 1.0225zm-37.732-0.42083c0-0.80081 0.38234-1.2197 0.84965-0.9309 0.4673 0.28881 0.59075 0.94401 0.27431 1.456-0.80862 1.3084-1.124 1.1611-1.124-0.52511zm-39.833-6.9497c-4.8265-2.1356-8.461-7.0666-9.679-13.132-0.85717-4.2682-1.5042-5.4626-2.959-5.4626-1.4484 0-1.8619 0.75014-1.8619 3.3776 0 3.5833-2.3999 6.8153-3.2778 4.4142-0.36878-1.0087-0.75228-1.0281-1.7504-0.08854-2.037 1.9175-4.9718-0.25441-4.9718-3.6794 0-3.7406-0.79359-4.1509-6.5116-3.3672l-4.7186 0.64676 0.62088 4.5983c0.91999 6.8135 3.3719 9.5602 8.7232 9.7716 7.4863 0.2958 7.5334 0.3134 4.8862 1.8267-3.3556 1.9182-6.5955 1.852-10.08-0.20606-3.6401-2.1503-5.6821-6.4142-6.5311-13.638l-0.66474-5.6559h7.471c4.1091 0 7.8066-0.33554 8.2166-0.74564 0.4101-0.4101 6.7228-0.59135 14.028-0.40278 10.799 0.27875 13.871 0.03854 16.43-1.2847 2.3308-1.2053 3.6469-1.3602 5.0726-0.59722 1.0589 0.56669 7.3548 1.0304 13.991 1.0304 7.3772 0 12.066 0.38859 12.066 1 0 0.56203-2.7904 1-6.3712 1h-6.3712l-0.64616 4.75c-0.82974 6.0994-4.2351 12.08-8.5246 14.97-3.9096 2.6347-11.682 3.0442-16.587 0.87386zm15.5-3.4366c3.2491-2.3221 6.2694-8.4804 6.3982-13.045 0.0906-3.2136-0.17407-3.6123-2.3982-3.6123-2.2305 0-2.5575 0.4998-3.0334 4.6365-0.65594 5.7019-2.3338 7.8635-6.1038 7.8635-3.6721 0-6.8857-4.7477-6.1922-9.1481l0.46583-2.9558-5.8182 0.30194c-5.4744 0.2841-5.8365 0.45997-6.1273 2.976-0.34398 2.9759 2.586 9.4124 5.4732 12.023 4.5429 4.1081 12.328 4.5394 17.336 0.9603zm67.149-28.478c-0.74286-2.101-1.9456-4.0483-2.6727-4.3273-0.72711-0.27902-1.5707-1.1555-1.8747-1.9477-0.57887-1.5085 2.2618-8.405 3.462-8.405 1.6273 0 3.018 6.1371 2.7382 12.083l-0.30206 6.4172zm-39.53-25.671c-8.327-2.6197-13.047-13.415-9.1552-20.94 7.6329-14.76 29.536-9.9065 29.536 6.5453 0 9.7007-10.878 17.384-20.381 14.395zm11.468-4.2893c6.7496-4.5485 7.9629-12.315 2.8361-18.154-7.2384-8.244-20.479-4.2757-21.577 6.4667-1.0742 10.513 10.122 17.495 18.741 11.688zm-4.8376-6.835c-2.9416-1.8838-3.25-2.5465-3.25-6.9832 0-2.696 0.45-4.9018 1-4.9018s1 1.9883 1 4.4184c0 3.971 0.35447 4.6375 3.5 6.5816 1.925 1.1897 3.5 2.3514 3.5 2.5816 0 1.0285-2.772 0.21053-5.75-1.6966z" fill="#3b769f"/>
 <path d="m143.55 210.4c-0.85344-2.2042-0.81442-3.7312 0.16343-6.3956 0.7065-1.925 1.7597-6.5055 2.3405-10.179l1.056-6.679 4.0742 3.679c2.2408 2.0234 5.6052 4.8535 7.4765 6.289l3.4023 2.6101-3.0647-0.4498c-2.7607-0.40518-3.3764 0.036-6.2074 4.4476-1.7285 2.6936-4.2625 5.9495-5.6312 7.2353l-2.4886 2.3379zm-64.152-83.407c0.24274-1.6539-0.05711-3.6078-0.66634-4.3418-0.87648-1.0561-0.25391-1.5905 2.9825-2.5602 2.2496-0.674 4.3227-0.99294 4.6069-0.70874 0.66348 0.66348-3.0819 6.7422-5.5056 8.9357-1.7773 1.6084-1.8394 1.5503-1.4174-1.325zm80.243-4.2388c0.0175-0.6875 0.63325-2.0425 1.3684-3.0111 1.1834-1.5594 1.4802-1.588 2.5906-0.25 0.68975 0.8311 2.2115 1.5254 3.3816 1.5429 2.0858 0.0312 2.0895 0.0606 0.18643 1.5-2.379 1.7994-7.5711 1.9499-7.5271 0.2182zm-15.585-4.8364c-0.36929-0.59753 0.83722-2.6429 2.6811-4.5454 3.2785-3.3825 3.3738-3.4114 4.3132-1.3062 0.82547 1.8499 1.5686 2.0843 5.2825 1.6657 3.4792-0.39216 4.1104-0.23235 3.2373 0.81968-1.3095 1.5779-9.4314 4.4526-12.58 4.4526-1.2446 0-2.565-0.48888-2.9343-1.0864zm-57.89-17.136c-0.85619-1.2224-1.5567-3.9224-1.5567-6v-3.7775h12v3.7775c0 5.0325-2.3278 8.2225-6 8.2225-1.8493 0-3.446-0.79865-4.4433-2.2225zm-28.872-0.93406c-1.0719-0.59988-1.6847-2.1978-1.6847-4.3931 0-3.2765 0.17627-3.4503 3.5-3.4503 3.2841 0 3.5 0.20103 3.5 3.2595 0 3.8005-2.6427 6.0796-5.3153 4.584zm1.0653-11.506c0.6875-0.27741 1.8125-0.27741 2.5 0 0.6875 0.27741 0.125 0.50439-1.25 0.50439s-1.9375-0.22697-1.25-0.50439zm30.5-1.4178c1.1887-0.69238 2.3113-0.69238 3.5 0 1.4277 0.83156 1.1054 1.0193-1.75 1.0193s-3.1777-0.18772-1.75-1.0193zm73.501-10.287c-0.96168-2.0317-2.3763-3.935-3.1436-4.2294-1.1798-0.45272-1.1566-1.1424 0.15021-4.4692 0.84989-2.1636 1.9089-3.9339 2.3534-3.9339 1.392 0 3.0557 7.3009 2.7147 11.913l-0.32626 4.4132z" fill="#27495f"/>
</svg>
