<?xml version="1.0" encoding="UTF-8"?>
<!-- Created with Inkscape (http://www.inkscape.org/) -->
<svg width="56" height="56" version="1.1" viewBox="0 0 800 665" xmlns="http://www.w3.org/2000/svg" xmlns:cc="http://creativecommons.org/ns#" xmlns:dc="http://purl.org/dc/elements/1.1/" xmlns:rdf="http://www.w3.org/1999/02/22-rdf-syntax-ns#">
 <metadata>
  <rdf:RDF>
   <cc:Work rdf:about="">
    <dc:format>image/svg+xml</dc:format>
    <dc:type rdf:resource="http://purl.org/dc/dcmitype/StillImage"/>
    <dc:title/>
   </cc:Work>
  </rdf:RDF>
 </metadata>
 <path d="m369.88 650.21c-53.287-2.954-98.421-11.781-133.5-26.11-22.82-9.3211-39.766-22.157-46.101-34.92-3.5523-7.156-3.3618-17.847 0.44866-25.172 8.98-17.264 33.775-32.185 72.584-43.68 9.1266-2.7032 38.109-9.4311 40.818-9.4756 0.1375-2e-3 0.25-11.635 0.25-25.85v-25.846l-7.25 1.4994c-4.6792 0.96773-12.924 1.4997-23.25 1.5002-18.581 8.9e-4 -26.671-1.6666-40-8.2444-14.429-7.1209-25.355-18.256-35.539-36.218-12.485-22.023-19.951-30.308-34.222-37.981-9.9383-5.343-14.74-9.646-14.74-13.21 0-3.6613 3.7459-5.7846 11.271-6.3887 8.4118-0.67521 16.241 1.0982 25.523 5.7818 10.842 5.4702 18.481 12.768 28.197 26.939 16.805 24.509 31.712 33.446 55.509 33.276 10.531-0.075 20.202-2.0823 31.054-6.4456 5.722-2.3008 5.7768-2.3623 7.4104-8.3179 3.0947-11.283 9.4221-21.939 17.988-30.295l5.9041-5.7593-12.678-1.7202c-35.864-4.8663-68.723-16.236-91.665-31.717-14.066-9.4916-32.995-29.621-38.327-40.759-1.5529-3.2433-1.5717-3.25-9.1209-3.249-9.5732 1e-3 -43.034 2.5106-60.342 4.5252-29.191 3.3977-61.382 9.1937-85.719 15.434-10.661 2.7335-14.205 2.7926-12.609 0.21055 0.34118-0.55204 8.1545-2.8212 17.363-5.0424 33.563-8.0963 70.74-13.831 107.74-16.619 11.55-0.87028 24.891-1.9034 29.647-2.2958l8.6466-0.71349-5.1462-12.5-30.573 2e-3c-43.964 2e-3 -79.052 2.6336-113.94 8.5444-7.9563 1.3478-14.671 2.2458-14.921 1.9954-1.2746-1.2746 1.0578-3.3285 4.4548-3.923 42.132-7.3731 90.219-11.166 132.64-10.463 18.129 0.30053 20.744 0.1521 20.353-1.1552-7.4731-24.987-9.9066-42.267-9.9987-71-0.0636-19.822 0.19824-23.75 2.1997-33 4.7066-21.752 13.111-40.068 25.998-56.658l7.6455-9.8424-1.7594-5.304c-3.6434-10.984-4.9954-22.822-4.419-38.696 0.59147-16.29 2.109-24.848 7.0044-39.5l3.174-9.5 8.5-0.28316c19.183-0.63903 48.875 10.904 80.619 31.342l8.1187 5.227 9.7542-2.3581c25.242-6.1024 49.52-8.7921 79.008-8.7531 24.519 0.03243 43.312 1.8301 65.32 6.2485l13.619 2.7342 9.0303-5.6825c29.758-18.726 58.09-29.372 76.53-28.758l8.5 0.28316 3.1803 9.5c5.5949 16.713 6.8197 24.615 6.8197 44 0 13.569-0.42297 19.341-1.8829 25.696l-1.883 8.1958 5.7224 6.3042c14.647 16.136 26.895 39.862 31.514 61.047 4.9551 22.725 4.0014 71.074-1.9678 99.758-1.0873 5.225-1.9829 9.7492-1.9901 10.054-7e-3 0.30458 10.449 0.36375 23.237 0.13148 43.489-0.7899 91.144 2.9181 134.09 10.433 3.397 0.59449 5.7294 2.6484 4.4548 3.923-0.25037 0.25037-6.9649-0.64755-14.921-1.9954-35.398-5.9966-69.931-8.5421-115.92-8.5444l-32.546-2e-3 -4.2266 13 3.1594 5e-3c1.7377 3e-3 10.584 0.46256 19.659 1.0222 46.158 2.8466 88.438 8.9166 126 18.089 16.617 4.0578 19.223 5.0758 17.45 6.8168-0.58976 0.57925-7.0171-0.56811-16.95-3.0258-39.709-9.8251-91.217-16.957-134-18.554l-17-0.63462-2.3497 4.8908c-8.5461 17.789-24.522 34.614-43.548 45.862-20.338 12.024-52.025 21.756-83.102 25.523-14.623 1.7724-14.137 0.90985-5.4819 9.7267 8.6606 8.8227 13.594 17.671 17.16 30.779 2.045 7.5166 2.201 10.644 2.5811 51.75 0.22252 24.062 0.67266 43.75 1.0003 43.75 0.32765 0 7.3783 1.381 15.668 3.069 55.469 11.294 93.419 30.259 103.33 51.636 16.456 35.5-39.272 68.946-136.26 81.778-27.408 3.6264-71.255 5.3621-98 3.8795zm-20.75-144.99 2.25-0.60297v-79.115l-2.4898 2.339c-6.3873 6.0006-8.5102 19.242-8.5102 53.082v24.928l3.25-0.0136c1.7875-8e-3 4.2625-0.285 5.5-0.61664zm98.974-28.12c-0.39641-22.912-0.84228-29.96-2.1958-34.707-1.9705-6.9112-4.7129-12.622-6.9549-14.483-1.4262-1.1837-1.5731 2.342-1.5731 37.762v39.068l4.75 0.37454c2.6125 0.206 5.1373 0.45566 5.6106 0.55479 0.47415 0.0993 0.63725-12.73 0.3632-28.57zm-49.724-16.128c0-45.169 0.0562-44.694-5.195-43.949l-2.305 0.32676-0.26074 42.75-0.26073 42.75h8.0215zm-85.425-152.05c9.681-4.2824 18.513-16.857 21.884-31.158 1.9425-8.2409 1.9384-24.6-8e-3 -32.859-4.6495-19.726-18.142-33.428-32.919-33.428-27.978 0-44.373 46.046-28.085 78.875 9.0447 18.229 23.929 25.293 39.128 18.57zm-15.668-15.396c-15.87-8.376-20.524-37.322-8.8379-54.965 5.7724-8.7148 16.736-12.477 24.507-8.4097 12.628 6.6094 18.94 27.763 13.565 45.462-2.5777 8.4865-7.6495 15.339-13.422 18.133-5.6401 2.7303-10.347 2.6649-15.812-0.21983zm3.0575-42.608c2.497-4.6658-0.0732-10.066-4.7911-10.066-5.0506 0-7.7234 5.2358-5.1386 10.066 0.75385 1.4086 2.1032 1.9343 4.9648 1.9343s4.211-0.52568 4.9648-1.9343zm199.6 57.883c13.434-6.4383 23.434-26.519 23.434-47.056 0-30.377-19.14-54.455-39.636-49.862-6.5123 1.4594-9.9587 3.4781-15.433 9.0396-9.141 9.2865-14.156 24.062-14.06 41.43 0.18683 34.089 23.032 57.31 45.695 46.448zm-22.074-14.754c-16.752-7.8582-21.517-37.447-9.0602-56.27 5.2282-7.9004 16.702-11.493 24.247-7.5911 4.2426 2.1939 9.1805 8.1159 12.119 14.534 3.391 7.4069 4.2036 21.18 1.7479 29.627-4.7567 16.362-17.601 25.072-29.053 19.7zm3.2861-42.751c2.5977-1.8195 3.0009-6.5524 0.71943-8.4459-3.8019-3.1553-9.4969-0.37468-9.4969 4.637 0 2.1575 3.2885 5.3656 5.5 5.3656 0.58024 0 2.0551-0.70052 3.2775-1.5567zm-327.78 154.56c-2.1666-2.1666-2.5495-6.0176-1.054-10.601 0.5203-1.5946 1.9366-6.2742 3.1474-10.399l2.2014-7.5 3.2144 11.489c3.2759 11.708 3.3402 16.22 0.25912 18.176-2.2316 1.4164-5.7086 0.89529-7.7683-1.1644z" fill="#f2c8b0"/>
 <path d="m369.88 650.21c-53.287-2.954-98.421-11.781-133.5-26.11-22.82-9.3211-39.766-22.157-46.101-34.92-3.5523-7.156-3.3618-17.847 0.44866-25.172 8.98-17.264 33.775-32.185 72.584-43.68 9.1266-2.7032 38.109-9.4311 40.818-9.4756 0.1375-2e-3 0.25-11.639 0.25-25.86v-25.856l-7.683 1.336c-27.694 4.8158-51.753 1.1449-69.874-10.662-10.62-6.9189-19.728-17.583-30.364-35.549-11.438-19.322-18.917-27.36-32.256-34.668-9.3901-5.1445-14.823-9.8184-14.823-12.752 0-4.6057 7.1904-7.4765 16.891-6.7441 18.46 1.3937 34.806 12.628 48.379 33.25 10.984 16.687 22.432 26.149 37.229 30.769 13.551 4.2309 34.933 2.2573 49.93-4.6088 4.8026-2.1987 5.191-2.6576 6.4682-7.641 2.5025-9.7641 8.8461-20.774 16.715-29.01l7.3292-7.6714-9.7212-1.2601c-61.403-7.959-106.59-31.521-129.31-67.421l-5.4152-8.5591-8.5-0.045c-35.648-0.18858-110.13 10.119-147.48 20.41-5.7957 1.5969-9.3247 2.1308-9.95 1.5055-1.7517-1.7517 0.64201-2.6588 17.931-6.7945 38.165-9.1295 75.764-14.723 115.5-17.181 24.442-1.5124 30.155-2.0601 29.805-2.8573-0.16766-0.3812-1.4002-3.2677-2.7388-6.4145l-2.434-5.7214h-32.236c-44.032 0-78.548 2.6028-112.85 8.51-7.6785 1.3222-14.147 2.2177-14.375 1.9901-2.6268-2.6268 15.729-6.4904 47.333-9.9627 26.45-2.9061 45.809-3.8932 77.749-3.9644 18.012-0.0401 32.746-0.29798 32.742-0.57298-4e-3 -0.275-0.90939-3.425-2.0124-7-5.6093-18.181-9.8664-56.26-8.5523-76.5 1.3111-20.194 6.2271-39.897 13.641-54.671 4.0234-8.018 12.4-20.746 18.233-27.703l4.506-5.3749-1.834-5.3306c-7.3987-21.505-6.3118-53.028 2.7456-79.629l2.8228-8.2906 6.9796-0.3052c19.873-0.86899 48.815 10.154 80.98 30.843l9 5.789 12.305-2.8416c45.487-10.505 104.27-10.877 146.93-0.93122l8.4204 1.9634 10.584-6.6441c21.716-13.632 47.055-24.595 63.262-27.371 3.575-0.61235 9.65-0.97603 13.5-0.80817l7 0.3052 3.3004 9.9452c4.3891 13.226 7.1996 30.216 7.1996 43.523 0 10.077-1.9009 25.149-3.9324 31.179-0.75827 2.2507-0.44095 3.0744 2.1188 5.5 6.6752 6.3254 18.069 22.923 23.807 34.681 10.769 22.067 13.993 38.001 13.997 69.172 3e-3 26.905-2.2058 49.741-6.3848 66l-1.2851 5 35.59 0.0763c45.32 0.0971 72.228 2.0853 109.44 8.0862 11.209 1.8075 17.028 3.1709 17.374 4.0707 0.28555 0.74414 0.33296 1.5392 0.10534 1.7668-0.22761 0.22761-6.6962-0.66793-14.375-1.9901-34.791-5.9908-68.772-8.51-114.79-8.51h-34.171l-2.1835 6.2327c-1.2009 3.428-2.0779 6.3383-1.9489 6.4673 0.129 0.12899 8.5368 0.71259 18.684 1.2969 48.645 2.801 89.101 8.4775 129.45 18.163 17.205 4.1302 19.694 5.0678 17.95 6.764-0.58387 0.568-4.4186-0.0105-9.95-1.5011-38.803-10.456-100.12-18.983-148.68-20.672l-9.676-0.33673-2.324 5.0154c-9.2484 19.959-28.251 38.668-50.824 50.037-21.275 10.716-51.864 19.068-81 22.116-3.575 0.37396-6.8042 0.85187-7.1761 1.062-0.37183 0.21014 1.8351 2.7386 4.9042 5.6188 11.748 11.025 19.204 26.605 21.241 44.384 0.55782 4.869 1.0179 25.84 1.0224 46.603 5e-3 20.762 0.31311 37.75 0.68577 37.75 2.6048 0 33.066 6.7666 43.033 9.5592 40.239 11.275 67.978 27.742 76.045 45.145 16.456 35.5-39.272 68.946-136.26 81.778-27.408 3.6264-71.255 5.3621-98 3.8795zm-20.75-144.99 2.25-0.60297v-79.077l-2.1024 1.9026c-2.6638 2.4107-4.8074 6.5482-6.6872 12.907-1.1061 3.742-1.5947 12.611-1.942 35.25l-0.46399 30.25 3.3477-0.0136c1.8413-8e-3 4.3602-0.285 5.5977-0.61664zm99.215-24.62c-0.0374-27.069-1.0549-36.439-4.9366-45.462-1.2174-2.8299-3.0718-5.9221-4.121-6.8716-1.8736-1.6956-1.9075-1.0311-1.9075 37.374v39.1l4.75 0.37454c2.6125 0.206 5.0875 0.45566 5.5 0.55479 0.4125 0.0991 0.7343-11.182 0.71511-25.07zm-49.965-19.55c0-31.178-0.30494-42.105-1.2-43-1.576-1.576-5.757-1.5425-6.2489 0.05-0.21237 0.6875-0.62639 20.038-0.92003 43l-0.5339 41.75h8.9028zm66.958-104.58c15.364-2.1127 25.921-4.3279 35.002-7.3446 37.061-12.311 55.576-38.169 58.558-81.778 0.78547-11.488-0.39428-19.73-4.2229-29.5-5.6394-14.391-20.546-32.541-32.791-39.926-15.181-9.1552-36.016-10.954-81.003-6.9919-33.797 2.9762-62.902 2.9959-96.987 0.0657-56.941-4.8951-75.353-1.4669-93.971 17.497-12.032 12.256-20.363 26.944-23.215 40.93-3.1034 15.218 1.2085 40.037 9.8373 56.622 4.5126 8.6737 14.2 19.792 22.747 26.106 16.543 12.221 41.365 20.297 74.089 24.105 20.327 2.3656 19.992 2.3561 72 2.0628 37.396-0.2109 51.123-0.63423 59.958-1.8491zm-79.073-14.945c-7.5016-2.7995-13.885-9.501-13.885-14.577 0-3.2255 3.0269-3.922 4.9245-1.133 3.429 5.0396 7.8442 8.8746 11.323 9.8352 6.928 1.9129 14.631-1.3882 17.694-7.5828 1.7102-3.4584 3.2661-4.4611 5.5582-3.5815 2.1489 0.82461 1.8606 3.0706-1.0266 7.9972-4.6294 7.8994-16.224 12.163-24.588 9.042zm0.56948-29.132c-1.7971-1.7971-2.4546-3.5382-2.4546-6.5 0-6.696 5.8546-10.591 12.058-8.0216 3.6687 1.5196 4.9424 3.6987 4.9424 8.4558 0 7.6539-9.144 11.467-14.545 6.0657zm-85.612-17.52c-5.0573-1.5278-8.9472-4.5311-12.327-9.5175-10.084-14.876-8.2534-40.284 3.6787-51.064 4.6621-4.2119 7.5832-5.4436 12.911-5.4436 22.784 0 31.39 43.768 12.044 61.247-2.2038 1.991-5.7262 4.0974-7.8277 4.681-4.3299 1.2023-4.8027 1.2078-8.4781 0.0974zm-2.729-42.086c4.6671-2.4978 4.2754-10.301-0.57824-11.52-5.927-1.4876-10.537 2.815-8.5676 7.9958 1.5408 4.0526 5.388 5.535 9.1458 3.5239zm181.92 41.918c-5.0063-1.4813-8.4234-4.2159-11.983-9.5892-9.2509-13.966-8.21-36.993 2.2073-48.827 6.9606-7.9076 15.279-9.658 23.369-4.9171 9.0139 5.2825 13.916 16.471 13.79 31.477-0.0936 11.179-2.3797 18.256-8.0288 24.856-5.6822 6.6384-12.386 9.0634-19.355 7.0014zm1.392-43.428c2.5158-2.5158 1.9887-7.109-1.0438-9.096-2.3422-1.5346-2.8904-1.5599-5.25-0.24186-3.205 1.7902-4.0813 6.82-1.6173 9.2839 2.0632 2.0632 5.8759 2.0892 7.9111 0.054zm-328.43 154.57c-2.1666-2.1666-2.5495-6.0176-1.054-10.601 0.5203-1.5946 1.9366-6.2742 3.1474-10.399l2.2014-7.5 3.2144 11.489c3.2759 11.708 3.3402 16.22 0.25912 18.176-2.2316 1.4164-5.7086 0.89529-7.7683-1.1644z" fill="#9ad8ee"/>
 <path d="m400.38 635.5c0-21.986 2.7245-34.359 9.53-43.282 1.3585-1.7811 2.47-3.4368 2.47-3.6794 0-0.24256-1.6298-2.1851-3.6219-4.3167s-5.0295-6.8007-6.75-10.376l-3.1281-6.5-0.28689-73.942c-0.19909-51.312-0.61912-74.342-1.3724-75.25-1.2913-1.556-5.4567-1.7384-6.3589-0.27847-0.34996 0.56624-0.62894 32.179-0.61995 70.25 0.01 40.428-0.39253 71.884-0.96664 75.625-1.19 7.7536-4.6469 15.294-9.3321 20.356l-3.4809 3.7608 2.8945 4.2888c6.6512 9.8551 8.6355 18.556 9.4508 41.44l0.57895 16.25h-9.8496c-5.4173 0-13.969-0.29238-19.003-0.64974l-9.1536-0.64975v-14.214c0-13.703-0.6985-20.302-3.0843-29.139-0.99877-3.6995-1.4918-4.1959-4.5184-4.5492l-3.3973-0.39662v47.473l-3.25-0.43681c-1.7875-0.24024-8.65-1.1223-15.25-1.9601s-13.238-1.7737-14.75-2.0798l-2.75-0.55647v-21.383c0-19.178-0.21356-21.954-2.0706-26.917-2.841-7.5934-10.196-15.397-18.514-19.645-11.275-5.7572-10.601-10.726 2.3169-17.085 7.9429-3.9103 14.295-10.739 16.585-17.831 1.455-4.5051 1.6826-10.314 1.6826-42.951v-37.741l-7.683 1.336c-27.694 4.8158-51.753 1.1449-69.874-10.662-10.62-6.9189-19.728-17.583-30.364-35.549-11.438-19.322-18.917-27.36-32.256-34.668-9.3901-5.1445-14.823-9.8184-14.823-12.752 0-4.6057 7.1904-7.4765 16.891-6.7441 18.46 1.3937 34.806 12.628 48.379 33.25 10.984 16.687 22.432 26.149 37.229 30.769 13.551 4.2309 34.933 2.2573 49.93-4.6088 4.8026-2.1987 5.191-2.6576 6.4682-7.641 2.5025-9.7641 8.8461-20.774 16.715-29.01l7.3292-7.6714-9.7212-1.2601c-61.403-7.959-106.59-31.521-129.31-67.421l-5.4152-8.5591-8.5-0.045c-35.648-0.18858-110.13 10.119-147.48 20.41-5.7957 1.5969-9.3247 2.1308-9.95 1.5055-1.7517-1.7517 0.64201-2.6588 17.931-6.7945 38.165-9.1295 75.764-14.723 115.5-17.181 24.442-1.5124 30.155-2.0601 29.805-2.8573-0.16766-0.3812-1.4002-3.2677-2.7388-6.4145l-2.434-5.7214h-32.236c-44.032 0-78.548 2.6028-112.85 8.51-7.6785 1.3222-14.147 2.2177-14.375 1.9901-2.6268-2.6268 15.729-6.4904 47.333-9.9627 26.45-2.9061 45.809-3.8932 77.749-3.9644 18.012-0.0401 32.746-0.29798 32.742-0.57298-4e-3 -0.275-0.90939-3.425-2.0124-7-5.6093-18.181-9.8664-56.26-8.5523-76.5 1.3111-20.194 6.2271-39.897 13.641-54.671 4.0234-8.018 12.4-20.746 18.233-27.703l4.506-5.3749-1.834-5.3306c-7.3987-21.505-6.3118-53.028 2.7456-79.629l2.8228-8.2906 6.9796-0.3052c19.873-0.86899 48.815 10.154 80.98 30.843l9 5.789 12.305-2.8416c45.487-10.505 104.27-10.877 146.93-0.93122l8.4204 1.9634 10.584-6.6441c21.716-13.632 47.055-24.595 63.262-27.371 3.575-0.61235 9.65-0.97603 13.5-0.80817l7 0.3052 3.3004 9.9452c4.3891 13.226 7.1996 30.216 7.1996 43.523 0 10.077-1.9009 25.149-3.9324 31.179-0.75827 2.2507-0.44095 3.0744 2.1188 5.5 6.6752 6.3254 18.069 22.923 23.807 34.681 10.769 22.067 13.993 38.001 13.997 69.172 3e-3 26.905-2.2058 49.741-6.3848 66l-1.2851 5 35.59 0.0763c45.32 0.0971 72.228 2.0853 109.44 8.0862 11.209 1.8075 17.028 3.1709 17.374 4.0707 0.28555 0.74414 0.33296 1.5392 0.10534 1.7668-0.22761 0.22761-6.6962-0.66793-14.375-1.9901-34.791-5.9908-68.772-8.51-114.79-8.51h-34.171l-2.1835 6.2327c-1.2009 3.428-2.0779 6.3383-1.9489 6.4673 0.129 0.12899 8.5368 0.71259 18.684 1.2969 48.645 2.801 89.101 8.4775 129.45 18.163 17.205 4.1302 19.694 5.0678 17.95 6.764-0.58387 0.568-4.4186-0.0105-9.95-1.5011-38.803-10.456-100.12-18.983-148.68-20.672l-9.676-0.33673-2.324 5.0154c-9.2484 19.959-28.251 38.668-50.824 50.037-21.275 10.716-51.864 19.068-81 22.116-3.575 0.37396-6.8042 0.85187-7.1761 1.062-0.37183 0.21014 1.8213 2.7386 4.8737 5.6188 9.7697 9.2185 15.495 19.091 19.565 33.737 1.9623 7.0615 2.1178 10.803 2.6609 64l0.57677 56.5 2.6604 5.6752c3.1908 6.8066 9.252 13.606 14.504 16.271 11.872 6.0232 12.496 13.398 1.5845 18.74-6.4753 3.17-12.881 9.7955-16.065 16.616-2.5945 5.5576-2.6684 6.2574-2.9884 28.298l-0.32811 22.599-11.684 1.613c-6.4261 0.88711-14.496 1.9131-17.934 2.28l-6.25 0.66703v-48.258h-2.9196c-2.5993 0-3.0893 0.52114-4.4664 4.75-2.5266 7.7589-3.5984 16.95-3.6064 30.928l-8e-3 13.178-5.25 0.53591c-2.8875 0.29474-11.212 0.80668-18.5 1.1376l-13.25 0.60174zm-58.978-52.287c5.286-3.4981 7.6427-7.568 8.9118-15.39 0.65982-4.0669 1.0535-31.739 1.0583-74.381l8e-3 -67.905-2.1024 1.9026c-2.6522 2.4002-4.7937 6.5211-6.7076 12.907-1.1984 3.9987-1.6254 14.712-2.1324 53.5-0.55727 42.639-0.84309 49.035-2.3654 52.931-3.0131 7.7112-8.9117 14.314-16.971 18.996l-4.7784 2.7761 6.6872 3.8984c4.2133 2.4562 8.0022 5.6556 10.242 8.6484 1.955 2.6125 3.6932 4.75 3.8626 4.75 0.16939 0 2.0988-1.1851 4.2875-2.6335zm116.21-3.6165c3.4477-3.4375 8.181-7.1058 10.519-8.1519 2.3375-1.046 4.25-2.1718 4.25-2.5017s-1.9816-1.6511-4.4036-2.936c-6.1635-3.2698-13.162-10.588-16.374-17.122l-2.7224-5.5382-0.57586-47.5c-0.48721-40.187-0.83286-48.39-2.2452-53.28-1.9683-6.8157-4.8896-12.82-7.1505-14.696-1.4883-1.2352-1.5908 4.2528-1.2811 68.567 0.31973 66.394 0.43514 70.186 2.2947 75.41 1.2641 3.5508 3.4968 7.0062 6.2998 9.75 2.388 2.3375 4.5171 4.25 4.7315 4.25s3.2105-2.8125 6.6582-6.25zm-196.43-142.95c0.66-0.66 1.2-1.9942 1.2-2.9648 0-3.8848-8.2325-5.0901-10.399-1.5225-2.1674 3.5689 6.0898 7.5967 9.1991 4.4874zm23 0c1.9938-1.9938 1.368-4.7856-1.3-5.8-3.0094-1.1442-7.2644 0.22232-8.1881 2.6296-1.2937 3.3713 6.6372 6.0213 9.4881 3.1704zm18.2-7.8c0-4.1489-0.78441-4.7209-4.0657-2.9648-2.4105 1.29-2.5119 4.529-0.18426 5.8847 3.278 1.9093 4.25 1.2415 4.25-2.9199zm-62.582 2.393c2.3175-0.88932 1.9288-5.0365-0.64072-6.8363-2.5537-1.7887-6.3555-2.0486-7.3126-0.49986-1.2697 2.0544 0.53208 5.7755 3.2831 6.7802 1.5136 0.55279 2.8277 1.0406 2.9202 1.084 0.0925 0.0434 0.88002-0.19419 1.75-0.52804zm-15.608-16.591c0.38726-3.3428-3.0457-7.0514-6.1221-6.6135-3.4373 0.48923-3.473 5.0493-0.0605 7.7335 3.472 2.7311 5.785 2.3121 6.1826-1.12zm-14-17c0.36177-3.1228-3.0218-7.0978-5.6221-6.605-2.5414 0.48168-2.6243 4.958-0.14127 7.6233 2.7252 2.9251 5.3604 2.4595 5.7633-1.0183zm-12.493-14.187c0.83049-2.1642-2.165-5.6148-4.8743-5.6148-2.8973 0-3.2679 2.4313-0.78831 5.1713 1.9586 2.1642 4.9135 2.3957 5.6626 0.44354zm-12.867-10.534c0.81509-1.3188-2.2452-4.0806-4.5216-4.0806-1.8844 0-2.7213 2.8739-1.2619 4.3333 0.98864 0.98865 5.1281 0.80777 5.7835-0.25271zm280.51-16.458c15.364-2.1127 25.921-4.3279 35.002-7.3446 37.061-12.311 55.576-38.169 58.558-81.778 0.78547-11.488-0.39428-19.73-4.2229-29.5-5.6394-14.391-20.546-32.541-32.791-39.926-15.181-9.1552-36.016-10.954-81.003-6.9919-33.797 2.9762-62.902 2.9959-96.987 0.0657-56.941-4.8951-75.353-1.4669-93.971 17.497-12.032 12.256-20.363 26.944-23.215 40.93-3.1034 15.218 1.2085 40.037 9.8373 56.622 4.5126 8.6737 14.2 19.792 22.747 26.106 16.543 12.221 41.365 20.297 74.089 24.105 20.327 2.3656 19.992 2.3561 72 2.0628 37.396-0.2109 51.123-0.63423 59.958-1.8491zm-79.073-14.945c-7.5016-2.7995-13.885-9.501-13.885-14.577 0-3.2255 3.0269-3.922 4.9245-1.133 3.429 5.0396 7.8442 8.8746 11.323 9.8352 6.928 1.9129 14.631-1.3882 17.694-7.5828 1.7102-3.4584 3.2661-4.4611 5.5582-3.5815 2.1489 0.82461 1.8606 3.0706-1.0266 7.9972-4.6294 7.8994-16.224 12.163-24.588 9.042zm0.56948-29.132c-1.7971-1.7971-2.4546-3.5382-2.4546-6.5 0-6.696 5.8546-10.591 12.058-8.0216 3.6687 1.5196 4.9424 3.6987 4.9424 8.4558 0 7.6539-9.144 11.467-14.545 6.0657zm-85.612-17.52c-5.0573-1.5278-8.9472-4.5311-12.327-9.5175-10.084-14.876-8.2534-40.284 3.6787-51.064 4.6621-4.2119 7.5832-5.4436 12.911-5.4436 22.784 0 31.39 43.768 12.044 61.247-2.2038 1.991-5.7262 4.0974-7.8277 4.681-4.3299 1.2023-4.8027 1.2078-8.4781 0.0974zm-2.729-42.086c4.6671-2.4978 4.2754-10.301-0.57824-11.52-5.927-1.4876-10.537 2.815-8.5676 7.9958 1.5408 4.0526 5.388 5.535 9.1458 3.5239zm181.92 41.918c-5.0063-1.4813-8.4234-4.2159-11.983-9.5892-9.2509-13.966-8.21-36.993 2.2073-48.827 6.9606-7.9076 15.279-9.658 23.369-4.9171 9.0139 5.2825 13.916 16.471 13.79 31.477-0.0936 11.179-2.3797 18.256-8.0288 24.856-5.6822 6.6384-12.386 9.0634-19.355 7.0014zm1.392-43.428c2.5158-2.5158 1.9887-7.109-1.0438-9.096-2.3422-1.5346-2.8904-1.5599-5.25-0.24186-3.205 1.7902-4.0813 6.82-1.6173 9.2839 2.0632 2.0632 5.8759 2.0892 7.9111 0.054z" fill="#7bb8e3"/>
 <path d="m337.27 597.73c-1.7104-1.7104-2.0098-2.9082-1.5618-6.2484 0.54956-4.0973 1.6029-5.381 8.2209-10.019 1.4783-1.036 3.6484-3.961 4.8224-6.5 2.1086-4.5599 2.1381-5.5004 2.4162-77.05l0.28163-72.434-2.134 1.9312c-2.6849 2.4298-4.8218 6.5341-6.7351 12.936-1.1952 3.9993-1.6144 14.707-2.0942 53.5l-0.59991 48.5-2.9052 6.2915c-7.0725 15.316-24.747 24.209-48.118 24.209-10.403 0-12.476-0.8911-12.476-5.3609 0-3.99 2.5448-6.5524 9.5-9.566 6.9281-3.0018 14.055-10.268 16.512-16.835 1.8569-4.963 1.9879-7.8393 1.9879-43.631v-38.318l-7.683 1.336c-27.694 4.8158-51.753 1.1449-69.874-10.662-10.62-6.9189-19.728-17.583-30.364-35.549-11.438-19.322-18.917-27.36-32.256-34.668-9.3901-5.1445-14.823-9.8184-14.823-12.752 0-4.6057 7.1904-7.4765 16.891-6.7441 18.46 1.3937 34.806 12.628 48.379 33.25 10.984 16.687 22.432 26.149 37.229 30.769 13.551 4.2309 34.933 2.2573 49.93-4.6088 4.8026-2.1987 5.191-2.6576 6.4682-7.641 2.5025-9.7641 8.8461-20.774 16.715-29.01l7.3292-7.6714-9.7212-1.2601c-61.403-7.959-106.59-31.521-129.31-67.421l-5.4152-8.5591-8.5-0.045c-35.648-0.18858-110.13 10.119-147.48 20.41-5.7957 1.5969-9.3247 2.1308-9.95 1.5055-1.7517-1.7517 0.64201-2.6588 17.931-6.7945 38.165-9.1295 75.764-14.723 115.5-17.181 24.442-1.5124 30.155-2.0601 29.805-2.8573-0.16766-0.3812-1.4002-3.2677-2.7388-6.4145l-2.434-5.7214h-32.236c-44.032 0-78.548 2.6028-112.85 8.51-7.6785 1.3222-14.147 2.2177-14.375 1.9901-2.6268-2.6268 15.729-6.4904 47.333-9.9627 26.45-2.9061 45.809-3.8932 77.749-3.9644 18.012-0.0401 32.746-0.29798 32.742-0.57298-4e-3 -0.275-0.90939-3.425-2.0124-7-5.6093-18.181-9.8664-56.26-8.5523-76.5 1.3111-20.194 6.2271-39.897 13.641-54.671 4.0234-8.018 12.4-20.746 18.233-27.703l4.506-5.3749-1.834-5.3306c-7.3987-21.505-6.3118-53.028 2.7456-79.629l2.8228-8.2906 6.9796-0.3052c19.873-0.86899 48.815 10.154 80.98 30.843l9 5.789 12.305-2.8416c45.487-10.505 104.27-10.877 146.93-0.93122l8.4204 1.9634 10.584-6.6441c21.716-13.632 47.055-24.595 63.262-27.371 3.575-0.61235 9.65-0.97603 13.5-0.80817l7 0.3052 3.3004 9.9452c4.3891 13.226 7.1996 30.216 7.1996 43.523 0 10.077-1.9009 25.149-3.9324 31.179-0.75827 2.2507-0.44095 3.0744 2.1188 5.5 6.6752 6.3254 18.069 22.923 23.807 34.681 10.769 22.067 13.993 38.001 13.997 69.172 3e-3 26.905-2.2058 49.741-6.3848 66l-1.2851 5 35.59 0.0763c45.32 0.0971 72.228 2.0853 109.44 8.0862 11.209 1.8075 17.028 3.1709 17.374 4.0707 0.28555 0.74414 0.33296 1.5392 0.10534 1.7668-0.22761 0.22761-6.6962-0.66793-14.375-1.9901-34.791-5.9908-68.772-8.51-114.79-8.51h-34.171l-2.1835 6.2327c-1.2009 3.428-2.0779 6.3383-1.9489 6.4673 0.129 0.12899 8.5368 0.71259 18.684 1.2969 48.645 2.801 89.101 8.4775 129.45 18.163 17.205 4.1302 19.694 5.0678 17.95 6.764-0.58387 0.568-4.4186-0.0105-9.95-1.5011-38.803-10.456-100.12-18.983-148.68-20.672l-9.676-0.33673-2.324 5.0154c-9.2484 19.959-28.251 38.668-50.824 50.037-21.275 10.716-51.864 19.068-81 22.116-3.575 0.37396-6.8042 0.85187-7.1761 1.062-0.37183 0.21014 1.8213 2.7386 4.8737 5.6188 9.7691 9.218 15.494 19.089 19.565 33.737 1.9647 7.0676 2.1181 10.786 2.6609 64.5l0.57604 57 2.9169 5.7594c3.3986 6.7107 9.4119 13.065 15.083 15.939 5.842 2.9605 8.5 5.7496 8.5 8.919 0 4.4348-3.1439 5.8824-12.775 5.8824-22.228 0-39.869-9.1738-46.901-24.39l-2.8239-6.1104-0.57668-47c-0.48717-39.705-0.83565-47.897-2.2452-52.78-1.9653-6.8085-4.8879-12.819-7.1437-14.691-1.4803-1.2285-1.5865 4.366-1.302 68.567 0.36068 81.366-0.14482 76.934 9.8747 86.575 4.5937 4.4204 5.8929 6.325 5.8929 8.6392 0 10.158-14.416 10.814-32.264 1.4695-8.5531-4.4783-16.707-13.08-19.902-20.995l-2.3348-5.7846-0.29288-73.449c-0.20215-50.697-0.62729-73.852-1.3724-74.75-1.1799-1.4217-5.4245-1.7735-6.2028-0.51416-0.2674 0.43265-0.77886 33.845-1.1366 74.25-0.41498 46.87-1.0333 74.73-1.7082 76.963-4.1053 13.584-14.808 23.678-30.331 28.608-9.7093 3.0833-17.658 3.1898-20.572 0.27577zm-75.457-161.45c2.9986-2.9986-1.7886-7.2919-6.9903-6.2691-0.94705 0.18621-2.2202 1.1542-2.8291 2.1512-0.90135 1.4757-0.6683 2.1728 1.2536 3.75 2.8546 2.3426 6.4372 2.4965 8.5658 0.3679zm23-0.34919c1.654-1.8276 1.6376-2.0174-0.34501-4-2.1994-2.1994-3.221-2.4188-6.7982-1.4597-2.683 0.71928-3.8989 3.9314-2.2433 5.9264 1.7404 2.0971 7.3173 1.8198 9.3865-0.46663zm17.745-7.0814c0.40743-4.2723-0.54666-4.9399-4.2371-2.9648-2.4105 1.29-2.5119 4.529-0.18426 5.8847 3.0841 1.7963 4.0313 1.1708 4.4214-2.9199zm-62.753 2.393c2.4412-0.93678 1.9227-5.1235-0.86039-6.9471-3.5777-2.3442-6.9875-1.5537-7.3649 1.7074-0.45766 3.9542 4.0659 6.8358 8.2253 5.2397zm-15.572-15.143c1.8584-3.5464-1.9629-8.655-6.0416-8.0768-3.2221 0.45676-3.5966 4.3553-0.7131 7.4246 2.6592 2.8306 5.4709 3.1021 6.7547 0.65214zm-13.947-17.063c1.8263-3.4124-2.7857-9.212-6.2642-7.8772-2.2657 0.86942-2.0574 5.2691 0.36408 7.6905 2.4858 2.4858 4.6333 2.5538 5.9001 0.18667zm-12.373-15.231c1.1239-1.8185-2.3844-5.956-5.0502-5.956-1.962 0-2.477 0.50939-2.477 2.4503 0 3.5597 5.8189 6.2698 7.5272 3.5057zm-13.615-10.35c1.4253-1.7174-1.0358-4.606-3.9245-4.606-2.9864 0-3.5214 2.1493-1.0359 4.162 2.7228 2.2048 3.4454 2.2694 4.9604 0.444zm281.05-16.984c15.364-2.1127 25.921-4.3279 35.002-7.3446 37.061-12.311 55.576-38.169 58.558-81.778 0.78547-11.488-0.39428-19.73-4.2229-29.5-5.6394-14.391-20.546-32.541-32.791-39.926-15.181-9.1552-36.016-10.954-81.003-6.9919-33.797 2.9762-62.902 2.9959-96.987 0.0657-56.941-4.8951-75.353-1.4669-93.971 17.497-12.032 12.256-20.363 26.944-23.215 40.93-3.1034 15.218 1.2085 40.037 9.8373 56.622 4.5126 8.6737 14.2 19.792 22.747 26.106 16.543 12.221 41.365 20.297 74.089 24.105 20.327 2.3656 19.992 2.3561 72 2.0628 37.396-0.2109 51.123-0.63423 59.958-1.8491zm-79.073-14.945c-7.5016-2.7995-13.885-9.501-13.885-14.577 0-3.2255 3.0269-3.922 4.9245-1.133 3.429 5.0396 7.8442 8.8746 11.323 9.8352 6.928 1.9129 14.631-1.3882 17.694-7.5828 1.7102-3.4584 3.2661-4.4611 5.5582-3.5815 2.1489 0.82461 1.8606 3.0706-1.0266 7.9972-4.6294 7.8994-16.224 12.163-24.588 9.042zm0.56948-29.132c-1.7971-1.7971-2.4546-3.5382-2.4546-6.5 0-6.696 5.8546-10.591 12.058-8.0216 3.6687 1.5196 4.9424 3.6987 4.9424 8.4558 0 7.6539-9.144 11.467-14.545 6.0657zm-85.612-17.52c-5.0573-1.5278-8.9472-4.5311-12.327-9.5175-10.084-14.876-8.2534-40.284 3.6787-51.064 4.6621-4.2119 7.5832-5.4436 12.911-5.4436 22.784 0 31.39 43.768 12.044 61.247-2.2038 1.991-5.7262 4.0974-7.8277 4.681-4.3299 1.2023-4.8027 1.2078-8.4781 0.0974zm-2.729-42.086c4.6671-2.4978 4.2754-10.301-0.57824-11.52-5.927-1.4876-10.537 2.815-8.5676 7.9958 1.5408 4.0526 5.388 5.535 9.1458 3.5239zm181.92 41.918c-5.0063-1.4813-8.4234-4.2159-11.983-9.5892-9.2509-13.966-8.21-36.993 2.2073-48.827 6.9606-7.9076 15.279-9.658 23.369-4.9171 9.0139 5.2825 13.916 16.471 13.79 31.477-0.0936 11.179-2.3797 18.256-8.0288 24.856-5.6822 6.6384-12.386 9.0634-19.355 7.0014zm1.392-43.428c2.5158-2.5158 1.9887-7.109-1.0438-9.096-2.3422-1.5346-2.8904-1.5599-5.25-0.24186-3.205 1.7902-4.0813 6.82-1.6173 9.2839 2.0632 2.0632 5.8759 2.0892 7.9111 0.054z" fill="#c89e8a"/>
 <path d="m337.27 597.73c-1.7104-1.7104-2.0098-2.9082-1.5618-6.2484 0.54956-4.0973 1.6029-5.381 8.2209-10.019 1.4783-1.036 3.6484-3.961 4.8224-6.5 2.1086-4.5599 2.1381-5.5004 2.4162-77.05l0.28163-72.434-2.134 1.9312c-2.6849 2.4298-4.8218 6.5341-6.7351 12.936-1.1952 3.9993-1.6144 14.707-2.0942 53.5l-0.59991 48.5-2.9052 6.2915c-7.0725 15.316-24.747 24.209-48.118 24.209-10.403 0-12.476-0.8911-12.476-5.3609 0-3.99 2.5448-6.5524 9.5-9.566 6.9281-3.0018 14.055-10.268 16.512-16.835 1.8569-4.963 1.9879-7.8393 1.9879-43.631v-38.318l-7.683 1.336c-27.694 4.8158-51.753 1.1449-69.874-10.662-10.62-6.9189-19.728-17.583-30.364-35.549-11.438-19.322-18.917-27.36-32.256-34.668-9.3901-5.1445-14.823-9.8184-14.823-12.752 0-4.6057 7.1904-7.4765 16.891-6.7441 18.46 1.3937 34.806 12.628 48.379 33.25 10.984 16.687 22.432 26.149 37.229 30.769 13.551 4.2309 34.933 2.2573 49.93-4.6088 4.8026-2.1987 5.191-2.6576 6.4682-7.641 2.5025-9.7641 8.8461-20.774 16.715-29.01l7.3292-7.6714-9.7212-1.2601c-61.403-7.959-106.59-31.521-129.31-67.421l-5.4152-8.5591-8.5-0.045c-35.648-0.18858-110.13 10.119-147.48 20.41-5.7957 1.5969-9.3247 2.1308-9.95 1.5055-1.7517-1.7517 0.64201-2.6588 17.931-6.7945 38.165-9.1295 75.764-14.723 115.5-17.181 24.442-1.5124 30.155-2.0601 29.805-2.8573-0.16766-0.3812-1.4002-3.2677-2.7388-6.4145l-2.434-5.7214h-32.236c-44.032 0-78.548 2.6028-112.85 8.51-7.6785 1.3222-14.147 2.2177-14.375 1.9901-2.6268-2.6268 15.729-6.4904 47.333-9.9627 26.45-2.9061 45.809-3.8932 77.749-3.9644 18.012-0.0401 32.746-0.29798 32.742-0.57298-4e-3 -0.275-0.90939-3.425-2.0124-7-5.6093-18.181-9.8664-56.26-8.5523-76.5 1.3111-20.194 6.2271-39.897 13.641-54.671 4.0234-8.018 12.4-20.746 18.233-27.703l4.506-5.3749-1.834-5.3306c-7.3987-21.505-6.3118-53.028 2.7456-79.629l2.8228-8.2906 6.9796-0.3052c19.873-0.86899 48.815 10.154 80.98 30.843l9 5.789 12.305-2.8416c45.487-10.505 104.27-10.877 146.93-0.93122l8.4204 1.9634 10.584-6.6441c21.716-13.632 47.055-24.595 63.262-27.371 3.575-0.61235 9.65-0.97603 13.5-0.80817l7 0.3052 3.3004 9.9452c4.3891 13.226 7.1996 30.216 7.1996 43.523 0 10.077-1.9009 25.149-3.9324 31.179-0.75827 2.2507-0.44095 3.0744 2.1188 5.5 6.6752 6.3254 18.069 22.923 23.807 34.681 10.769 22.067 13.993 38.001 13.997 69.172 3e-3 26.905-2.2058 49.741-6.3848 66l-1.2851 5 35.59 0.0763c45.32 0.0971 72.228 2.0853 109.44 8.0862 11.209 1.8075 17.028 3.1709 17.374 4.0707 0.28555 0.74414 0.33296 1.5392 0.10534 1.7668-0.22761 0.22761-6.6962-0.66793-14.375-1.9901-34.791-5.9908-68.772-8.51-114.79-8.51h-34.171l-2.1835 6.2327c-1.2009 3.428-2.0779 6.3383-1.9489 6.4673 0.129 0.12899 8.5368 0.71259 18.684 1.2969 48.645 2.801 89.101 8.4775 129.45 18.163 17.205 4.1302 19.694 5.0678 17.95 6.764-0.58387 0.568-4.4186-0.0105-9.95-1.5011-38.803-10.456-100.12-18.983-148.68-20.672l-9.676-0.33673-2.324 5.0154c-9.2484 19.959-28.251 38.668-50.824 50.037-21.275 10.716-51.864 19.068-81 22.116-3.575 0.37396-6.8042 0.85187-7.1761 1.062-0.37183 0.21014 1.8213 2.7386 4.8737 5.6188 9.7691 9.218 15.494 19.089 19.565 33.737 1.9647 7.0676 2.1181 10.786 2.6609 64.5l0.57604 57 2.9169 5.7594c3.3986 6.7107 9.4119 13.065 15.083 15.939 5.842 2.9605 8.5 5.7496 8.5 8.919 0 4.4348-3.1439 5.8824-12.775 5.8824-22.228 0-39.869-9.1738-46.901-24.39l-2.8239-6.1104-0.57668-47c-0.48717-39.705-0.83565-47.897-2.2452-52.78-1.9653-6.8085-4.8879-12.819-7.1437-14.691-1.4803-1.2285-1.5865 4.366-1.302 68.567 0.36068 81.366-0.14482 76.934 9.8747 86.575 4.5937 4.4204 5.8929 6.325 5.8929 8.6392 0 10.158-14.416 10.814-32.264 1.4695-8.5531-4.4783-16.707-13.08-19.902-20.995l-2.3348-5.7846-0.29288-73.449c-0.20215-50.697-0.62729-73.852-1.3724-74.75-1.1799-1.4217-5.4245-1.7735-6.2028-0.51416-0.2674 0.43265-0.77886 33.845-1.1366 74.25-0.41498 46.87-1.0333 74.73-1.7082 76.963-4.1053 13.584-14.808 23.678-30.331 28.608-9.7093 3.0833-17.658 3.1898-20.572 0.27577zm-75.457-161.45c2.9986-2.9986-1.7886-7.2919-6.9903-6.2691-0.94705 0.18621-2.2202 1.1542-2.8291 2.1512-0.90135 1.4757-0.6683 2.1728 1.2536 3.75 2.8546 2.3426 6.4372 2.4965 8.5658 0.3679zm23-0.34919c1.654-1.8276 1.6376-2.0174-0.34501-4-2.1994-2.1994-3.221-2.4188-6.7982-1.4597-2.683 0.71928-3.8989 3.9314-2.2433 5.9264 1.7404 2.0971 7.3173 1.8198 9.3865-0.46663zm17.745-7.0814c0.40743-4.2723-0.54666-4.9399-4.2371-2.9648-2.4105 1.29-2.5119 4.529-0.18426 5.8847 3.0841 1.7963 4.0313 1.1708 4.4214-2.9199zm-62.753 2.393c2.4412-0.93678 1.9227-5.1235-0.86039-6.9471-3.5777-2.3442-6.9875-1.5537-7.3649 1.7074-0.45766 3.9542 4.0659 6.8358 8.2253 5.2397zm-15.572-15.143c1.8584-3.5464-1.9629-8.655-6.0416-8.0768-3.2221 0.45676-3.5966 4.3553-0.7131 7.4246 2.6592 2.8306 5.4709 3.1021 6.7547 0.65214zm-13.947-17.063c1.8263-3.4124-2.7857-9.212-6.2642-7.8772-2.2657 0.86942-2.0574 5.2691 0.36408 7.6905 2.4858 2.4858 4.6333 2.5538 5.9001 0.18667zm-12.373-15.231c1.1239-1.8185-2.3844-5.956-5.0502-5.956-1.962 0-2.477 0.50939-2.477 2.4503 0 3.5597 5.8189 6.2698 7.5272 3.5057zm-13.615-10.35c1.4253-1.7174-1.0358-4.606-3.9245-4.606-2.9864 0-3.5214 2.1493-1.0359 4.162 2.7228 2.2048 3.4454 2.2694 4.9604 0.444zm245.63-14.604c28.009-1.0249 43.042-2.6799 59.162-6.5137 46.263-11.003 67.659-37.803 69.965-87.64 0.9357-20.223-2.4021-33.277-12.201-47.721-12.296-18.125-25.479-27.846-44.466-32.79-9.3832-2.4434-36.701-2.7874-63-0.79345-30.296 2.297-64.113 2.3047-94.5 0.0214-51.317-3.8559-72.642-0.39599-90.19 14.633-18.511 15.853-29.318 37.69-29.304 59.212 0.0182 28.128 8.6559 51.552 24.886 67.486 28.15 27.637 81.2 37.708 179.65 34.106zm-46.521-19.252c-7.689-3.9284-13.502-13.834-8.5199-14.518 1.4253-0.19582 2.638 0.85103 4.2202 3.6432 2.3944 4.2254 8.8886 8.1252 13.53 8.1252 5.6556 0 12.883-4.7531 14.825-9.75 0.93666-2.4096 4.4598-3.0869 5.202-1 0.60383 1.698-2.5496 7.7522-5.4442 10.452-5.9772 5.5754-16.284 6.8945-23.814 3.0477zm6.3371-25.72c-5.4495-2.2539-6.995-9.4828-2.9024-13.575 5.1284-5.1284 14.545-1.6037 14.545 5.4442 0 5.6575-6.5552 10.235-11.643 8.1312zm-92.157-20.702c-4.6021-2.2681-9.7852-8.6537-12.377-15.249-2.928-7.4499-3.1902-23.094-0.51547-30.761 4.8962-14.035 17.115-21.533 27.251-16.723 11.428 5.4232 18.403 23.18 15.457 39.351-3.4681 19.031-17.043 29.677-29.815 23.383zm2.4851-41.503c1.273-1.1959 2.3144-3.2413 2.3144-4.5455 0-2.9314-4.1815-7.2802-7-7.2802-2.7593 0-7 4.3256-7 7.1401 0 3.053 3.8069 6.8599 6.8599 6.8599 1.3812 0 3.5527-0.97844 4.8257-2.1743zm177.81 41.753c-18.685-8.3646-20.848-47.897-3.3151-60.598 7.6679-5.5546 15.016-5.1967 22.145 1.0786 11.909 10.483 14.738 31.536 6.441 47.94-5.6142 11.1-15.857 15.793-25.271 11.579zm5.0872-43.071c2.1214-3.2377 1.1373-7.2201-2.1551-8.7202-5.8328-2.6576-11.452 3.482-8.0031 8.7449 2.2766 3.4746 7.8742 3.461 10.158-0.0247z" fill="#a39e9c"/>
 <path d="m337.56 597.53c-4.0384-4.2987-2.1432-9.8421 5.1966-15.199 2.271-1.6575 5.029-4.8075 6.129-7 1.9371-3.861 2.0086-6.2736 2.2752-76.736 0.17345-45.852-0.0787-72.75-0.68191-72.75-1.5714 0-5.0302 5.5336-7.3203 11.711-2.0521 5.5358-2.1717 7.9289-2.7374 54.789-0.65171 53.986-0.44083 52.184-7.2941 62.307-7.5327 11.126-24.657 18.193-44.084 18.193-8.9345 0-12.657-1.5066-12.657-5.1224 0-3.7146 2.0613-5.909 8.3349-8.8732 9.004-4.2542 13.846-8.8065 17.22-16.191l2.8848-6.3133 0.38643-38.896 0.38643-38.896-2.8563 0.56306c-11.193 2.2064-20.992 2.9225-33.668 2.4604-16.672-0.60779-22.83-2.0491-35.251-8.25-15.541-7.7584-25.356-18.322-38.397-41.324-9.848-17.371-18.29-25.975-33.142-33.78-6.7657-3.5552-12.898-9.1449-12.898-11.757 0-4.5779 10.566-7.3801 21.117-5.6004 15.74 2.655 31.482 14.048 42.679 30.888 8.8158 13.259 14.429 19.429 22.725 24.978 11.035 7.3809 18.978 9.6215 33.979 9.5854 12.673-0.0305 21.405-1.8199 32.028-6.5632 4.9536-2.2119 4.983-2.2531 7.7928-10.924 3.4478-10.639 10.402-21.743 17.891-28.563l5.5759-5.079-15.04-2.2154c-40.466-5.9609-73.532-18.519-97.469-37.019-11.007-8.507-18.515-16.684-27.027-29.434l-6.5599-9.8269-8.0957 0.55225c-4.4526 0.30374-12.821 0.80856-18.596 1.1218-38.83 2.1063-93.669 10.42-127.21 19.286-8.3091 2.1962-10.824 2.5417-11.208 1.5399-0.5557-1.4481 0.01744-1.629 21.421-6.7614 38.444-9.2187 102.45-17.563 134.86-17.581 8.364-5e-3 8.3013 0.13254 4.1901-9.1615l-2.0109-4.546-7.6697-0.64832c-17.65-1.492-65.441-0.0373-95.368 2.9029-15.405 1.5135-45.075 5.6962-52.255 7.3668-3.3885 0.78837-5.9091-0.087-4.4505-1.5455 0.96303-0.96303 28.459-5.2945 46.207-7.2791 28.487-3.1853 46.358-4.0935 80.554-4.0935h31.896l-0.97245-2.5577c-1.9775-5.2012-6.002-22.519-7.6849-33.069-2.5772-16.156-2.5325-59.506 0.0735-71.373 4.9205-22.406 17.616-47.79 30.841-61.662l3.0144-3.162-2.0637-6.338c-3.4533-10.606-4.538-18.677-4.5474-33.838-0.01-16.051 1.5416-26.206 6.4519-42.226 3.3036-10.779 4.2534-11.774 11.241-11.774 20.313 0 53.417 13.265 83.101 33.299l5.9047 3.9852 11.095-2.6078c28.611-6.7244 54.261-9.2071 86.45-8.3677 23.677 0.61745 37.211 2.0787 58.191 6.2828l12.546 2.514 10.454-6.5832c12.978-8.1725 33.595-18.392 45.333-22.472 14.459-5.0252 32.14-7.4495 36.665-5.0275 2.2056 1.1804 7.0119 15.838 9.3519 28.521 3.3143 17.963 2.9735 37.788-0.90229 52.48l-1.4108 5.3481 5.3232 6.0638c17.386 19.804 28.011 41.251 33.289 67.19 1.4748 7.2485 1.7983 13.637 1.7661 34.874-0.0226 14.907-0.59853 30.693-1.3499 37-1.1817 9.9184-4.2922 27.248-5.6987 31.75-0.51337 1.6431 1.53 1.75 33.441 1.75 36.22 0 53.844 0.87294 82.646 4.0935 17.748 1.9845 45.244 6.316 46.207 7.2791 0.27192 0.27192 0.23089 0.92076-0.0912 1.4419-0.36061 0.58349-2.9922 0.44309-6.8501-0.36544-32.75-6.8638-106.09-11.99-142.96-9.9921l-13.692 0.74179-2.0367 6.031c-1.1202 3.3171-1.839 6.351-1.5972 6.7421s7.7695 1.0018 16.728 1.3573c46.184 1.8322 102 9.9938 141.82 20.739 5.307 1.432 7.6816 2.5218 7.3542 3.3751-0.37612 0.98014-1.9726 0.84584-7.1835-0.60429-37.956-10.563-93.078-18.509-148.21-21.365l-12.509-0.64798-2.334 4.8368c-4.2924 8.8951-13.135 21.162-20.729 28.756-21.993 21.993-55.83 35.92-104.55 43.03-5.8456 0.85315-11.781 1.5512-13.189 1.5512-2.3052 0-1.7907 0.77433 5.1488 7.75 10.841 10.898 17.053 23.259 19.136 38.078 0.5157 3.6694 1.0122 28.947 1.1032 56.172 0.0911 27.225 0.55675 51.975 1.0348 55 1.8752 11.866 9.3002 22.15 19.43 26.911 7.2675 3.4161 9.332 8.2291 5.2153 12.158-2.1019 2.0063-2.9738 2.1125-13.25 1.6134-23.035-1.1187-37.961-9.9179-44.963-26.507-1.8398-4.3584-2.0142-7.8999-2.5696-52.176-0.52243-41.647-0.8141-48.178-2.3669-53-2.0499-6.366-6.2345-14-7.6742-14-0.64644 0-0.89201 24.552-0.70785 70.772l0.28199 70.772 3.2824 6.6661c2.2117 4.4918 4.3751 7.3414 6.6324 8.7365 4.5636 2.8204 6.4509 7.4198 4.4832 10.925-3.2551 5.7994-9.4777 6.4652-21.454 2.2958-14.177-4.9354-23.305-12.382-28.343-23.123l-2.6011-5.5456-0.5-74.5c-0.275-40.975-0.86406-75.062-1.309-75.75-1.0302-1.5918-5.9165-1.6244-7.491-0.05-0.91098 0.91098-1.2 18.442-1.2 72.79 0 79.372 0.043 78.783-6.4654 88.632-5.8088 8.7902-16.227 15.761-28.228 18.887-8.6695 2.2581-14.501 1.978-17.132-0.82278zm-51.793-161.93c0.77713-1.232 0.57104-2.1521-0.82848-3.6985-3.3278-3.6771-10.553-2.0385-10.553 2.3933 0 4.3104 8.8459 5.3248 11.381 1.3052zm-23.025 0.0515c1.8206-2.9073-1.8936-5.9673-6.8049-5.6064-3.4347 0.25245-4.1043 0.67002-4.3967 2.7418-0.21521 1.5247 0.34903 2.952 1.5 3.7945 2.4292 1.7782 8.3619 1.2095 9.7016-0.92994zm39.657-4.5586c8e-3 -0.9625 0.285-2.7625 0.61664-4 0.50354-1.879 0.20447-2.25-1.8137-2.25-1.3292 0-2.9566 0.54-3.6166 1.2-2.5248 2.5248-0.63867 6.8 3 6.8 1.0424 0 1.8058-0.73654 1.8136-1.75zm-60.648-1.4551c0.83936-1.3408 0.5566-2.2488-1.3234-4.25-4.404-4.6879-11.779-2.6579-9.0264 2.4847 2.1842 4.0813 8.2521 5.1162 10.35 1.7653zm-17.341-13.325c1.6313-1.9656 0.054-5.7176-3.3381-7.9402-4.4955-2.9456-7.7674 0.47877-5.2004 5.4428 2.1396 4.1374 6.1934 5.3231 8.5385 2.4974zm-13.486-17.591c0.90943-2.8653-2.4743-7.2889-5.887-7.6962-2.6549-0.31687-3.2458 0.74547-2.6793 4.8164 0.63935 4.5944 7.3104 6.8371 8.5664 2.8798zm-13.022-17.829c-1.0151-3.1984-5.1514-4.8438-7.1506-2.8446-1.2553 1.2553-1.3331 1.9859-0.39769 3.7338 2.58 4.8207 9.1162 4.0508 7.5483-0.88919zm-12.873-7.5633c0.8638-2.251-1.6224-4.6303-4.4806-4.2878-3.1064 0.3722-3.7646 2.0558-1.6359 4.1845 2.0352 2.0352 5.3536 2.0912 6.1165 0.10334zm269.08-15.567c43.648-3.6717 71.31-14.821 86.838-35.002 12.074-15.691 18.437-38.066 18.437-64.828 0-21.749-7.6559-38.952-24.964-56.096-18.85-18.67-38.747-22.515-95.536-18.459-31.526 2.2518-62.044 2.2504-93.956-4e-3 -60.957-4.3069-81.231 0.87848-101.38 25.931-7.2629 9.0283-12.103 17.583-15.295 27.037-2.1305 6.3089-2.3534 8.629-2.258 23.5 0.0926 14.436 0.43557 17.744 2.7425 26.448 12.396 46.765 50.968 68.196 130.59 72.554 19.111 1.0461 77.407 0.38118 94.79-1.0811zm-70.705-18.17c-7.689-3.9284-13.502-13.834-8.5199-14.518 1.4253-0.19582 2.638 0.85103 4.2202 3.6432 2.3944 4.2254 8.8886 8.1252 13.53 8.1252 5.6556 0 12.883-4.7531 14.825-9.75 0.93666-2.4096 4.4598-3.0869 5.202-1 0.60383 1.698-2.5496 7.7522-5.4442 10.452-5.9772 5.5754-16.284 6.8945-23.814 3.0477zm6.3371-25.72c-5.4495-2.2539-6.995-9.4828-2.9024-13.575 5.1284-5.1284 14.545-1.6037 14.545 5.4442 0 5.6575-6.5552 10.235-11.643 8.1312zm-92.157-20.702c-4.6021-2.2681-9.7852-8.6537-12.377-15.249-2.928-7.4499-3.1902-23.094-0.51547-30.761 4.8962-14.035 17.115-21.533 27.251-16.723 11.428 5.4232 18.403 23.18 15.457 39.351-3.4681 19.031-17.043 29.677-29.815 23.383zm2.4851-41.503c1.273-1.1959 2.3144-3.2413 2.3144-4.5455 0-2.9314-4.1815-7.2802-7-7.2802-2.7593 0-7 4.3256-7 7.1401 0 3.053 3.8069 6.8599 6.8599 6.8599 1.3812 0 3.5527-0.97844 4.8257-2.1743zm177.81 41.753c-12.268-5.4918-18.888-27.066-13.624-44.398 2.5916-8.5322 7.1176-14.734 13.031-17.855 7.7883-4.1107 15.419-2.2743 22.082 5.3141 13.494 15.369 10.42 46.589-5.5067 55.923-4.7105 2.7605-11.168 3.1708-15.982 1.0155zm5.0872-43.071c2.1214-3.2377 1.1373-7.2201-2.1551-8.7202-5.8328-2.6576-11.452 3.482-8.0031 8.7449 2.2766 3.4746 7.8742 3.461 10.158-0.0247z" fill="#ab5a50"/>
 <path d="m337.72 597.28c-3.9261-3.9261-2.6989-7.681 4.7174-14.434 9.4271-8.5836 8.9398-3.8827 8.9398-86.242 0-56.292-0.25789-70.84-1.25-70.514-1.9626 0.6444-5.6069 6.5921-7.4556 12.168-1.4501 4.3738-1.7744 11.899-2.309 53.588-0.39917 31.13-1.0172 49.654-1.7257 51.721-3.6976 10.791-10.254 18.234-20.223 22.959-8.2627 3.916-14.382 5.3147-26.238 5.9977-9.02 0.51959-11.101 0.35405-13.25-1.0538-5.2338-3.4294-2.4345-8.8426 6.6866-12.93 7.3675-3.3016 14.866-10.769 17.301-17.229 1.6846-4.4695 1.9071-8.8305 2.2308-43.715 0.29248-31.522 0.11454-38.747-0.95402-38.733-0.72246 0.01-5.3636 0.68289-10.314 1.4962-4.95 0.81331-14.175 1.4745-20.5 1.4694-32.878-0.0267-56.018-12.994-72.164-40.44-16.242-27.608-21.727-33.886-37.068-42.428-12.011-6.6871-14.352-9.0202-13.886-13.839 0.45323-4.6834 17.659-5.8613 28.443-1.9471 14.475 5.2541 23.677 13.171 35.715 30.728 17.056 24.875 33.072 33.818 58.461 32.644 10.961-0.50692 19.133-2.4006 29.603-6.8599 4.3699-1.8613 4.6895-2.2735 6.3189-8.1507 2.9412-10.608 9.2946-21.419 17.301-29.44 3.9804-3.9875 7.0366-7.25 6.7915-7.25s-5.5236-0.70431-11.73-1.5651c-44.7-6.1998-80.406-20.24-105.67-41.551-7.684-6.4826-18.724-19.632-23.866-28.427-4.3738-7.4804-2.0852-7.0164-26.77-5.428-47.872 3.0805-94.01 9.8756-129.8 19.117-10.551 2.7243-14.258 3.097-12.408 1.2476 1.0118-1.0118 22.195-6.2015 40.226-9.8549 31.45-6.3723 65.997-10.673 102-12.699 11.55-0.64977 21.116-1.2584 21.259-1.3526 0.14237-0.0942-1.0865-3.1384-2.7309-6.7649-2.9582-6.5242-3.0397-6.6012-7.7342-7.3052-2.6095-0.39132-19.381-0.43833-37.269-0.10449-42.506 0.79326-73.3 3.3964-104.37 8.823-7.7652 1.3561-12.187 1.7302-12.831 1.0857-1.1214-1.1214 8.8761-3.1332 30.679-6.1734 28.553-3.9815 47.493-5.2259 87.807-5.7692 36.164-0.48739 39.75-0.68486 39.179-2.1574-10.008-25.818-13.65-80.74-7.1702-108.12 5.0232-21.227 14.732-40.643 28.36-56.718l4.4238-5.2181-1.9286-6.2819c-3.2674-10.643-4.5583-20.711-4.4599-34.782 0.10737-15.345 1.7772-25.925 6.4475-40.85 3.8164-12.196 4.4589-12.679 15.596-11.702 19.632 1.722 44.496 11.716 72.557 29.165 7.9431 4.9391 12.822 7.3793 14.155 7.0792 30.634-6.9023 50.228-9.5582 76.533-10.374 27.423-0.85059 47.605 0.82258 76 6.3007l13.5 2.6045 8.1028-5.0313c29.16-18.106 53.601-27.985 73.569-29.737 11.22-0.98447 11.848-0.51536 15.669 11.695 4.7666 15.233 6.3594 25.478 6.4288 41.35 0.0547 12.502-1.6818 27.199-3.8951 32.966-0.33822 0.88139 1.4082 3.5484 4.417 6.7456 11.416 12.13 22.884 31.351 28.512 47.788 6.7478 19.706 8.9339 44.137 6.7806 75.779-1.1285 16.582-3.9078 36.855-6.0618 44.215-0.56232 1.9214-1.0224 3.7777-1.0224 4.1253 0 0.34753 18.788 0.86868 41.75 1.1581 42.423 0.53469 60.565 1.7012 89.75 5.7708 21.659 3.0201 31.798 5.0544 30.694 6.1583-0.62431 0.62431-6.6028 0.053-16.831-1.6084-17.371-2.8216-35.067-4.9723-54.363-6.6072-16.601-1.4065-78.929-2.3532-86.415-1.3126l-5.9146 0.82229-1.7579 5c-2.9727 8.4552-2.9455 8.4986 5.3371 8.5099 16.968 0.0231 55.634 3.5153 83.75 7.5638 25.914 3.7315 72.501 13.594 74.726 15.819 1.7967 1.7968-1.6562 1.5499-10.418-0.74486-39.615-10.375-91.838-17.768-142.93-20.234l-14.118-0.68146-3.2418 6.3795c-16.711 32.885-48.791 54.461-97.022 65.254-6.325 1.4154-18.525 3.5628-27.112 4.7721l-15.612 2.1986 7.112 7.0878c8.2692 8.241 13.584 16.847 17.338 28.075l2.6749 8 0.5495 58 0.54951 58 3.1382 6.6234c4.0316 8.509 8.8635 13.799 16.151 17.684 6.1897 3.2991 8.827 6.6763 7.7828 9.9664-1.0953 3.4511-5.7386 4.5865-15.883 3.8839-26.242-1.8175-41.963-13.225-45.602-33.091-0.66654-3.6386-1.0937-21.817-1.1043-47-0.0135-31.845-0.34018-42.59-1.455-47.851-1.5031-7.0937-6.1099-16.792-8.3098-17.494-1.0365-0.33085-1.2263 13.164-0.99062 70.435 0.27104 65.874 0.42001 71.177 2.1234 75.586 1.7644 4.5674 4.4106 7.8636 9.9453 12.389 3.6938 3.02 4.4481 6.8918 1.9885 10.206-2.9331 3.9526-7.7276 4.7972-15.768 2.7775-15.324-3.8493-28.08-13.18-33.328-24.379l-2.6882-5.7358-0.25361-74.5c-0.25325-74.392-0.25667-74.503-2.3608-76.25-2.3738-1.9714-3.7095-2.1465-5.8856-0.77163-1.3041 0.82398-1.5653 10.714-2 75.735l-0.5 74.787-2.734 5.8359c-5.7384 12.249-14.581 19.623-28.989 24.175-10.503 3.3178-16.061 3.2958-19.434-0.077zm-52.598-160.64c3.1151-2.5853-0.14366-6.7972-5.2591-6.7972-3.5442 0-6.7895 3.0437-5.8515 5.488 1.2222 3.1849 7.9021 3.972 11.111 1.3091zm-22.784-0.24917c3.0362-3.6584-3.2823-8.5166-8.4976-6.5338-2.9518 1.1223-3.3878 5.3475-0.71258 6.9057 2.584 1.505 7.8282 1.2932 9.2102-0.37191zm40.477-7.065c0.78452-4.1818 0.11987-5.6156-2.2192-4.7873-2.1319 0.75489-5.218 3.35-5.218 4.3879 0 1.4424 3.1334 3.9164 4.9601 3.9164 1.2868 0 2.0099-1.0266 2.4771-3.517zm-61.413 0.9874c3.0126-3.6299-3.6863-9.2495-8.7798-7.3652-3.0298 1.1208-2.8496 4.274 0.39004 6.8223 3.1142 2.4497 6.619 2.6765 8.3897 0.54297zm-16.509-14.519c1.1813-3.7219-4.427-9.6897-7.8658-8.3701-2.1093 0.80941-2.7471 3.033-1.6772 5.8471 1.73 4.5502 8.3445 6.299 9.5429 2.5231zm-13.98-16.008c0.914-1.4789-0.236-5.5012-2.1081-7.3732-2.0286-2.0286-6.0398-2.0216-6.8201 0.0119-0.91713 2.39-0.78097 2.9273 1.4656 5.7834 2.1085 2.6806 6.2411 3.5544 7.4626 1.578zm-13.65-14.851c2.0574-1.303 0.53715-5.9424-2.3833-7.273-1.8573-0.84623-2.8094-0.80872-3.9724 0.15645-2.0941 1.7379-1.9322 2.713 0.92494 5.57 2.6757 2.6757 3.3464 2.8667 5.4308 1.5466zm-12.242-11.605c0.81682-2.1286-1.4419-4.4873-4.2971-4.4873-3.1391 0-4.2582 2.8599-1.8175 4.6446 2.457 1.7966 5.3938 1.721 6.1146-0.15734zm257.36-14.492c29.416-1.7593 49.021-5.333 65.539-11.947 34.62-13.862 51.466-42.573 51.596-87.936 0.0417-14.553-1.2554-20.581-7.0174-32.612-4.8175-10.059-11.213-18.55-20.333-26.994-8.694-8.0493-18.378-12.93-31.064-15.656-11.664-2.5061-37.095-2.6663-66.72-0.42027-26.345 1.9974-56.925 1.9864-85.683-0.0309-14.597-1.0239-29.842-1.4338-42.317-1.1378-17.526 0.41585-20.411 0.73646-28.494 3.167-11.237 3.3785-17.953 7.1871-26.082 14.792-12.07 11.291-21.391 26.482-25.02 40.78-1.3277 5.2301-1.5432 9.5282-1.103 22 0.66332 18.795 2.6522 27.383 9.6111 41.5 16.406 33.283 53.357 50.297 118.18 54.418 18.32 1.1646 69.971 1.2094 88.904 0.077z" fill="#1e1e1e"/>
</svg>
