<?xml version="1.0" encoding="UTF-8" standalone="no"?>
<svg
   xmlns:dc="http://purl.org/dc/elements/1.1/"
   xmlns:cc="http://creativecommons.org/ns#"
   xmlns:rdf="http://www.w3.org/1999/02/22-rdf-syntax-ns#"
   xmlns:svg="http://www.w3.org/2000/svg"
   xmlns="http://www.w3.org/2000/svg"
   xmlns:sodipodi="http://sodipodi.sourceforge.net/DTD/sodipodi-0.dtd"
   xmlns:inkscape="http://www.inkscape.org/namespaces/inkscape"
   height="56px"
   style="enable-background:new 0 0 512 512;"
   version="1.1"
   viewBox="0 0 512 512"
   width="56px"
   xml:space="preserve"
   id="svg48"
   sodipodi:docname="stackovrflowBlue2.svg"
   inkscape:version="0.92.3 (2405546, 2018-03-11)"><metadata
     id="metadata54"><rdf:RDF><cc:Work
         rdf:about=""><dc:format>image/svg+xml</dc:format><dc:type
           rdf:resource="http://purl.org/dc/dcmitype/StillImage" /><dc:title></dc:title></cc:Work></rdf:RDF></metadata><defs
     id="defs52" /><sodipodi:namedview
     pagecolor="#ffffff"
     bordercolor="#666666"
     borderopacity="1"
     objecttolerance="10"
     gridtolerance="10"
     guidetolerance="10"
     inkscape:pageopacity="0"
     inkscape:pageshadow="2"
     inkscape:window-width="1366"
     inkscape:window-height="745"
     id="namedview50"
     showgrid="false"
     inkscape:zoom="10.285714"
     inkscape:cx="29.701389"
     inkscape:cy="28"
     inkscape:window-x="-8"
     inkscape:window-y="-8"
     inkscape:window-maximized="1"
     inkscape:current-layer="g44" /><g
     id="social__x2C__media__x2C__social_media__x2C___stackoverflow__x2C_"
     inkscape:transform-center-x="-236.9702"
     inkscape:transform-center-y="37.539833"><g
       id="g44"
       transform="matrix(1.0482464,0,0,1.1336805,-394.57329,-67.501884)"
       inkscape:transform-center-x="140.44445"
       inkscape:transform-center-y="-4.4444445"><g
         id="g42"
         transform="translate(371.88177,25.099795)"><path
           d="m 131.122,426.134 c -2.626,0 -4.834,0 -6.603,-0.192 v 0.085 c -0.965,0 -1.897,-0.246 -2.723,-0.686 -1.201,-0.482 -2.016,-1.243 -2.434,-2.466 -0.364,-0.707 -0.568,-1.5 -0.568,-2.337 V 285.285 c 0,-3.034 2.455,-5.488 5.488,-5.488 h 22.639 c 3.034,0 5.488,2.454 5.488,5.488 V 393.29 H 315.2 V 285.285 c 0,-3.034 2.455,-5.488 5.488,-5.488 h 22.639 c 3.034,0 5.488,2.454 5.488,5.488 v 128.779 c 0,2.476 0,4.662 -0.235,6.474 h 0.021 c 0,0.943 -0.247,1.844 -0.665,2.638 -0.568,1.383 -1.532,2.305 -3.108,2.668 -0.536,0.183 -1.114,0.29 -1.715,0.29 z m 34.58,-43.991 c -1.458,0 -2.852,-0.579 -3.88,-1.607 -1.029,-1.029 -1.608,-2.423 -1.608,-3.881 v -27.763 c 0,-3.033 2.455,-5.488 5.488,-5.488 l 99.323,-0.054 -98.637,-8.907 c -1.458,-0.14 -2.797,-0.836 -3.73,-1.962 -0.933,-1.114 -1.383,-2.562 -1.244,-4.02 l 2.573,-27.655 c 0.268,-2.841 2.658,-4.974 5.456,-4.974 0.171,0 123.752,11.158 123.752,11.158 l -119.786,-31.6 c -1.415,-0.375 -2.626,-1.297 -3.355,-2.572 -0.729,-1.265 -0.922,-2.776 -0.536,-4.191 l 7.342,-26.798 c 0.665,-2.433 2.873,-4.03 5.285,-4.03 0.472,0 0.943,0.054 1.404,0.183 l 117.589,31.01 -105.605,-61.088 c -1.275,-0.739 -2.197,-1.962 -2.562,-3.387 -0.365,-1.425 -0.15,-2.937 0.611,-4.191 l 14.396,-23.904 c 1.029,-1.715 2.84,-2.659 4.706,-2.659 0.933,0 1.875,0.236 2.744,0.74 l 104.951,60.724 -68.152,-97.994 c -0.836,-1.211 -1.157,-2.701 -0.879,-4.148 0.269,-1.447 1.115,-2.723 2.337,-3.548 l 23.39,-15.65 c 0.932,-0.621 1.993,-0.922 3.044,-0.922 1.736,0 3.451,0.826 4.513,2.358 l 67.552,97.18 -20.4,-115.436 c -0.257,-1.436 0.075,-2.926 0.911,-4.116 0.847,-1.19 2.122,-2.004 3.569,-2.251 l 27.892,-4.759 c 0.311,-0.054 0.621,-0.075 0.922,-0.075 2.615,0 4.931,1.865 5.402,4.534 l 22.639,128.051 c 0.257,1.436 -0.075,2.915 -0.922,4.105 -0.836,1.2 -2.123,2.015 -3.559,2.251 l -27.892,4.759 c -0.311,0.054 -0.622,0.086 -0.933,0.086 -0.343,0 -0.675,-0.032 -1.008,-0.097 -0.289,0.311 -0.621,0.601 -0.986,0.836 l -23.378,15.628 c -0.75,0.504 -1.575,0.793 -2.423,0.89 -0.128,0.418 -0.3,0.814 -0.525,1.19 l -14.363,23.904 c -0.59,0.975 -1.426,1.693 -2.369,2.144 0.021,0.043 0.054,0.097 0.075,0.14 0.74,1.275 0.933,2.787 0.536,4.191 l -7.364,26.797 c -0.472,1.727 -1.704,3.034 -3.247,3.645 0.3,0.236 0.578,0.504 0.825,0.805 0.933,1.125 1.383,2.572 1.254,4.02 l -2.583,27.655 c -0.15,1.532 -0.9,2.851 -2.005,3.751 0.879,0.976 1.415,2.262 1.415,3.666 l 0.021,27.763 c 0,1.458 -0.579,2.852 -1.607,3.892 -1.029,1.028 -2.423,1.607 -3.881,1.607 z"
           style="fill:#62c2ff"
           id="path36"
           inkscape:connector-curvature="0" /><path
           d="m 154.726,348.892 132.478,-0.064 0.021,27.763 -132.499,0.064 z M 326.21,96.114 l 22.639,128.05 27.892,-4.759 -22.639,-128.051 z m -35.813,217.126 -131.92,-11.92 -2.572,27.655 131.909,11.92 z m 8.715,-36.209 -127.932,-33.744 -7.343,26.798 127.911,33.743 z m 16.701,-31.75 -114.104,-66.03 -14.396,23.904 114.137,66.03 z m -70.05,-111.178 74.659,107.362 23.379,-15.628 -74.648,-107.384 z m 63.95,264.675 H 135.946 V 285.285 h -22.639 v 135.253 h 0.236 c 0,0.107 6.603,0.107 6.603,0.107 h 211.992 v -0.107 c 0.215,0 0.215,-6.474 0.215,-6.474 V 285.285 h -22.64 z"
           style="fill:#48b0f5"
           id="path38"
           inkscape:connector-curvature="0" /><path
           d="m 365.078,91.354 22.639,128.051 -27.892,4.759 -22.639,-128.05 27.892,-4.76 m -84.949,27.098 74.647,107.384 -23.378,15.628 -74.659,-107.362 23.39,-15.65 m -67.445,60.799 114.105,66.03 -14.363,23.903 -114.138,-66.03 14.396,-23.903 m -30.528,64.036 127.933,33.744 -7.364,26.797 -127.911,-33.743 7.342,-26.798 m 161.172,41.998 v 128.779 c 0,0 0,6.474 -0.214,6.474 v 0.107 H 131.122 c 0,0 -6.603,0 -6.603,-0.107 h -0.236 V 285.285 h 22.639 V 398.778 H 320.689 V 285.285 h 22.639 m -173.874,16.035 131.92,11.92 -2.583,27.655 -131.91,-11.92 2.573,-27.655 m 128.726,47.507 0.021,27.763 -132.499,0.064 V 348.891 L 298.18,348.827 M 365.088,80.378 c -0.61,0 -1.232,0.043 -1.854,0.15 l -27.892,4.759 c -2.884,0.493 -5.456,2.112 -7.139,4.502 -1.673,2.39 -2.337,5.359 -1.833,8.232 l 16.057,90.834 -53.284,-76.674 c -2.133,-3.065 -5.553,-4.706 -9.025,-4.706 -2.101,0 -4.224,0.6 -6.1,1.854 l -23.389,15.65 c -2.444,1.629 -4.127,4.191 -4.674,7.085 -0.547,2.895 0.086,5.885 1.769,8.297 l 54.089,77.778 -83.631,-48.397 c -1.736,-0.997 -3.623,-1.468 -5.488,-1.468 -3.73,0 -7.353,1.897 -9.412,5.306 l -14.396,23.903 c -1.522,2.53 -1.962,5.553 -1.232,8.404 0.739,2.851 2.583,5.295 5.134,6.764 l 70.168,40.593 -78.003,-20.57 c -0.943,-0.247 -1.875,-0.365 -2.808,-0.365 -4.824,0 -9.24,3.205 -10.58,8.072 l -7.343,26.797 c -0.771,2.83 -0.386,5.842 1.083,8.383 1.458,2.54 3.87,4.384 6.71,5.135 l 56.683,14.953 -58.258,-5.264 c -0.333,-0.032 -0.675,-0.043 -0.997,-0.043 -5.606,0 -10.387,4.267 -10.923,9.958 l -0.622,6.731 v -21.748 c 0,-6.067 -4.92,-10.977 -10.976,-10.977 h -22.639 c -6.066,0 -10.976,4.909 -10.976,10.977 v 135.253 c 0,1.747 0.408,3.388 1.125,4.856 0.558,1.265 1.329,2.271 2.272,3.076 1.962,1.887 4.642,3.044 7.578,3.044 v -0.192 c 2.348,0.3 4.749,0.3 6.839,0.3 h 211.992 c 1.019,0 2.015,-0.14 2.958,-0.407 2.787,-0.601 4.631,-2.091 5.854,-4.03 1.361,-1.822 2.165,-4.084 2.165,-6.539 h -0.086 c 0.3,-2.315 0.3,-4.642 0.3,-6.581 V 285.285 c 0,-6.067 -4.92,-10.977 -10.977,-10.977 h -21.181 l 13.71,-22.821 c 0.558,-0.247 1.115,-0.547 1.64,-0.9 l 23.153,-15.479 c 0.344,-0.032 0.676,-0.064 1.019,-0.129 l 27.892,-4.759 c 2.883,-0.493 5.445,-2.112 7.128,-4.502 1.683,-2.391 2.348,-5.349 1.833,-8.232 L 375.883,89.436 c -0.944,-5.317 -5.564,-9.058 -10.795,-9.058 z m -207.19,260.796 v -5.896 c 0.172,0.247 0.354,0.482 0.547,0.719 0.911,1.104 2.026,2.004 3.27,2.658 -1.447,0.568 -2.744,1.426 -3.817,2.519 z m 150.787,4.471 c 0.536,-1.126 0.9,-2.359 1.028,-3.666 v 45.824 H 157.898 v -3.431 c 0.011,0.011 0.032,0.032 0.043,0.043 2.058,2.058 4.845,3.216 7.761,3.216 v 0 l 132.499,-0.064 c 2.916,0 5.703,-1.158 7.761,-3.227 2.058,-2.059 3.216,-4.845 3.216,-7.761 l -0.021,-27.763 c -10e-4,-1.103 -0.173,-2.165 -0.472,-3.171 z"
           style="fill:#234aa8"
           id="path40"
           inkscape:connector-curvature="0" /></g></g></g><g
     id="Layer_1" /></svg>